<svg version="1.1" x="0" y="0" id="ilf702111" diagram-revision="1" width="310" height="310" xmlns="http://www.w3.org/2000/svg" xmlns:xml="http://www.w3.org/XML/1998/namespace" xmlns:xlink="http://www.w3.org/1999/xlink">
  <defs/>
  <g id="Square-ilf70211-ko1" transform="translate(5,5)">
    <desc>root/abstractShapes/square?version=4&amp;author=Cinergix</desc>
    <g id="image" transform="scale(3.3333332538604736,3.3322222232818604)">
      <rect vector-effect="non-scaling-stroke" x="0" y="0" fill="#3498db" stroke="#3498db" width="90" height="90" style="stroke-width:2;stroke:#3498db;stroke-dasharray:none;fill:#3498db;" stroke-width="2" stroke-dasharray="none"/>
    </g>
  </g>
  <g id="Man-ilf70211-ko2" transform="translate(50,54.89999999999998)">
    <desc>root/people/man?version=3&amp;author=Cinergix</desc>
    <g id="image" transform="scale(2.21052622795105,2.2727270126342773)">
      <g>
        <path fill="#DEE8F5" d="M59.4,66.7C53.9,63.9,55,55.8,55.3,53c-2.4,0.9-5.2,1.4-8.2,1.4s-5.8-0.5-8.2-1.4&#xA;&#x9;&#x9;c0.3,2.8,1.4,10.9-4.1,13.7C17.3,69.2,6.9,76.3,6.9,80.1v25.5c0,2.3,1.9,4.2,4.2,4.2h75.6c2.3,0,4.2-1.9,4.2-4.2l-2.1-25.5&#xA;&#x9;&#x9;C88.7,76.3,76.8,69.2,59.4,66.7z" stroke-width="0.5" style="stroke-width:0.5;"/>
        <path fill="#FFFFFF" stroke="#231F20" stroke-width="0.5" stroke-miterlimit="10" d="M48.4,65.8" style="stroke-width:0.5;"/>
        <path fill="#E4AE80" d="M37.7,63.7c1.9-3.2,1.3-7.6,1.1-9.5c2.4,0.9,5.2,1.4,8.2,1.4s5.8-0.5,8.2-1.4c-0.2,1.9-0.6,6.4,1.2,9.6&#xA;&#x9;&#x9;c0,0-4.2,2.3-9.3,2.3C42,66.1,37.7,63.7,37.7,63.7z" stroke-width="0.5" style="stroke-width:0.5;"/>
        <path fill="#EAF1EE" d="M51.1,109.5" stroke-width="0.5" style="stroke-width:0.5;"/>
        <path fill="#F1C79F" d="M59.4,66.7C53.9,63.9,55,55.8,55.3,53c-2.4,0.9-5.2,1.4-8.2,1.4s-5.8-0.5-8.2-1.4&#xA;&#x9;&#x9;c0.3,2.8,1.4,10.9-4.1,13.7C17.3,69.2,6.9,76.3,6.9,80.1v25.5c0,2.3,1.9,4.2,4.2,4.2h75.6c2.3,0,4.2-1.9,4.2-4.2l-2.1-25.5&#xA;&#x9;&#x9;C88.7,76.3,76.8,69.2,59.4,66.7z" stroke-width="0.5" style="stroke-width:0.5;"/>
        <path fill="#364476" d="M34.2,66.8c-17.4,2.5-28,9.6-28,13.4l-2.1,25.4c0,2.3,1.9,4.2,4.2,4.2h78.3c2.3,0,4.2-1.9,4.2-4.2&#xA;&#x9;&#x9;l-2.1-25.5c0-3.8-12-11-29.3-13.4C59.4,66.7,49,77.3,34.2,66.8z" stroke-width="0.5" style="stroke-width:0.5;"/>
        <path fill="none" d="M34.2,66.8c-17.4,2.5-28,9.6-28,13.4l-2.1,25.4c0,2.3,1.9,4.2,4.2,4.2h78.3c2.3,0,4.2-1.9,4.2-4.2l-2.1-25.5&#xA;&#x9;&#x9;c0-3.8-12-11-29.3-13.4C59.4,66.7,49,77.3,34.2,66.8z" stroke-width="0.5" style="stroke-width:0.5;"/>
        <g>
          <path fill="#4B658C" d="M39.7,69.9c-4.7-0.3-9.2-0.8-13.5-1.6c-0.6,0.2-1.3,0.3-1.9,0.5c5.8,1.1,12,1.8,18.4,2&#xA;&#x9;&#x9;&#x9;C41.7,70.6,40.7,70.3,39.7,69.9z" stroke-width="0.5" style="stroke-width:0.5;"/>
          <path fill="#4B658C" d="M51.7,70.9c6.3-0.2,12.4-0.9,18.1-2c-0.6-0.2-1.3-0.3-1.9-0.5c-4.2,0.7-8.7,1.3-13.4,1.5&#xA;&#x9;&#x9;&#x9;C53.7,70.3,52.7,70.6,51.7,70.9z" stroke-width="0.5" style="stroke-width:0.5;"/>
        </g>
        <path fill="#4B658C" d="M74.2,70.2c-0.5-0.2-1-0.3-1.5-0.5c-7.6,1.7-16.3,2.7-25.5,2.7c-9.3,0-18-1-25.7-2.7&#xA;&#x9;&#x9;c-0.5,0.2-1,0.3-1.5,0.5c8.2,2,17.5,3.1,27.2,3.1C56.8,73.3,66,72.2,74.2,70.2z" stroke-width="0.5" style="stroke-width:0.5;"/>
        <path fill="#4B658C" d="M80.6,72.9c-0.4-0.2-0.7-0.4-1.1-0.5c-9.1,2.8-20.2,4.5-32.3,4.5c-12.1,0-23.2-1.7-32.3-4.5&#xA;&#x9;&#x9;c-0.4,0.2-0.7,0.4-1.1,0.5c9.6,3.1,21.2,4.8,33.4,4.8C59.4,77.7,71,76,80.6,72.9z" stroke-width="0.5" style="stroke-width:0.5;"/>
        <path fill="#4B658C" d="M84.2,75c-0.3-0.2-0.6-0.4-0.9-0.6C73.6,78,61,80.2,47.2,80.2c-13.8,0-26.4-2.2-36.1-5.8&#xA;&#x9;&#x9;c-0.3,0.2-0.6,0.4-0.8,0.6c10.2,3.9,23.2,6,36.9,6C61,81,74,78.9,84.2,75z" stroke-width="0.5" style="stroke-width:0.5;"/>
        <path fill="#4B658C" d="M47.2,84.8c-15.6,0-29.7-2.8-39.8-7.3C7.2,77.7,7,78,6.9,78.2c0.2,0.1,0.4,0.2,0.7,0.3&#xA;&#x9;&#x9;c10.6,4.6,24.7,7.1,39.6,7.1c15,0,29-2.5,39.6-7.1c0.4-0.2,0.7-0.3,1-0.5c-0.2-0.2-0.4-0.4-0.6-0.6C77.2,82,63,84.8,47.2,84.8z" stroke-width="0.5" style="stroke-width:0.5;"/>
        <path fill="#4B658C" d="M6.1,81.6L6,82.5c0.5,0.2,1,0.5,1.6,0.7c10.6,4.6,24.7,7.1,39.6,7.1c15,0,29-2.5,39.6-7.1&#xA;&#x9;&#x9;c0.7-0.3,1.4-0.6,2.1-1l-0.1-0.9c-10.2,5-25.1,8.1-41.7,8.1C30.9,89.5,16.2,86.4,6.1,81.6z" stroke-width="0.5" style="stroke-width:0.5;"/>
        <path fill="#4B658C" d="M5.8,85.4l-0.1,0.9c0.6,0.3,1.2,0.6,1.9,0.9c10.6,4.6,24.7,7.1,39.6,7.1c15,0,29-2.5,39.6-7.1&#xA;&#x9;&#x9;c0.8-0.4,1.6-0.7,2.4-1.1l-0.1-0.9c-10.2,5.1-25.2,8.3-42,8.3C30.7,93.5,15.9,90.4,5.8,85.4z" stroke-width="0.5" style="stroke-width:0.5;"/>
        <path fill="#4B658C" d="M89.5,89.7l-0.1-0.9c-10.2,5.2-25.3,8.4-42.3,8.4C30.5,97.2,15.5,94,5.4,89l-0.1,0.9c0.7,0.3,1.4,0.7,2.2,1&#xA;&#x9;&#x9;C18.1,95.5,32.2,98,47.1,98c10.4,0,20.3-1.2,29-3.5c3.8-1,7.4-2.2,10.6-3.6C87.8,90.6,88.7,90.1,89.5,89.7z" stroke-width="0.5" style="stroke-width:0.5;"/>
        <path fill="#4B658C" d="M5.2,92.7l-0.1,0.9c0.8,0.4,1.6,0.8,2.5,1.2c10.6,4.6,24.7,7.1,39.6,7.1c15,0,29-2.5,39.6-7.1&#xA;&#x9;&#x9;c1.1-0.5,2.1-0.9,3-1.4l-0.1-0.9c-10.2,5.3-25.5,8.6-42.6,8.6C30.4,101,15.3,97.8,5.2,92.7z" stroke-width="0.5" style="stroke-width:0.5;"/>
        <path fill="none" d="M34.2,66.8c-17.4,2.5-28,9.6-28,13.4l-2.1,25.4c0,2.3,1.9,4.2,4.2,4.2h78.3c2.3,0,4.2-1.9,4.2-4.2l-2.1-25.5&#xA;&#x9;&#x9;c0-3.8-12-11-29.3-13.4C59.4,66.7,49,77.3,34.2,66.8z" stroke-width="0.5" style="stroke-width:0.5;"/>
        <path fill="none" d="M34.2,66.8c-17.4,2.5-28,9.6-28,13.4l-2.1,25.4c0,2.3,1.9,4.2,4.2,4.2h78.3c2.3,0,4.2-1.9,4.2-4.2l-2.1-25.5&#xA;&#x9;&#x9;c0-3.8-12-11-29.3-13.4C59.4,66.7,49,77.3,34.2,66.8z" stroke-width="0.5" style="stroke-width:0.5;"/>
        <path fill="#4B658C" d="M4.9,96.2l-0.1,0.9c0.9,0.4,1.8,0.9,2.8,1.3c10.6,4.6,24.7,7.1,39.6,7.1c15,0,29-2.5,39.6-7.1&#xA;&#x9;&#x9;c1.2-0.5,2.3-1,3.3-1.6l-0.1-0.9c-10.2,5.3-25.6,8.7-42.9,8.7C30.2,104.6,15,101.3,4.9,96.2z" stroke-width="0.5" style="stroke-width:0.5;"/>
        <path fill="#4B658C" d="M4.6,99l-0.1,0.9c1,0.5,1.9,1,3,1.4c10.6,4.6,24.7,7.1,39.6,7.1c15,0,29-2.5,39.6-7.1&#xA;&#x9;&#x9;c1.3-0.5,2.4-1.1,3.5-1.7l-0.1-0.9c-10.2,5.4-25.7,8.9-43.1,8.9C30.1,107.6,14.8,104.2,4.6,99z" stroke-width="0.5" style="stroke-width:0.5;"/>
        <g>
          <path fill="#4B658C" d="M90.7,103.4l-0.1-0.9c-5.9,3.2-13.6,5.7-22.5,7.3h4.4c5.2-1.2,10.1-2.7,14.4-4.5&#xA;&#x9;&#x9;&#x9;C88.2,104.7,89.5,104.1,90.7,103.4z" stroke-width="0.5" style="stroke-width:0.5;"/>
          <path fill="#4B658C" d="M4.3,103.7c1,0.5,2.1,1.1,3.3,1.6c4.3,1.9,9.1,3.4,14.4,4.5h4.4c-8.6-1.5-16.1-3.9-22-7L4.3,103.7z" stroke-width="0.5" style="stroke-width:0.5;"/>
        </g>
        <g>
          <path fill="#4B658C" d="M90.6,107.1c0.1-0.3,0.2-0.7,0.2-1.1c-2.6,1.4-5.5,2.7-8.7,3.8h2.4c0.8-0.3,1.6-0.6,2.3-0.9&#xA;&#x9;&#x9;&#x9;C88.1,108.3,89.4,107.7,90.6,107.1z" stroke-width="0.5" style="stroke-width:0.5;"/>
          <path fill="#4B658C" d="M4.5,107.4c1,0.5,2,1,3,1.4c0.7,0.3,1.5,0.6,2.3,0.9h2.4c-3-1-5.7-2.2-8.1-3.5&#xA;&#x9;&#x9;&#x9;C4.2,106.7,4.4,107.1,4.5,107.4z" stroke-width="0.5" style="stroke-width:0.5;"/>
        </g>
        <polygon fill="#2E3B60" points="18.1,109.8 20,93.7 20,109.8 &#x9;" stroke-width="0.5" style="stroke-width:0.5;"/>
        <polygon fill="#2E3B60" points="77.9,109.8 76,93.7 76,109.8 &#x9;" stroke-width="0.5" style="stroke-width:0.5;"/>
        <path fill="#DEE8F5" d="M63.5,67.4c-0.8-0.3-2.5-0.6-2.5-0.6l-1.5-0.4c0,0-2.3-1.4-2.4-1.4c-1.4,0.8-4.9,3.1-10,4.1&#xA;&#x9;&#x9;c-6-0.7-8.3-3.6-10-4.5c-0.1-0.1-2.7,2-2.7,2h-0.6c0,0-2.5,0.3-3,0.8l11.9,9.2l4.5,24L51.5,77L63.5,67.4z" stroke-width="0.5" style="stroke-width:0.5;"/>
        <path fill="#FBCEA4" d="M69.2,35.2c0,15.1-9.7,27.3-21.7,27.3S25.8,50.3,25.8,35.2c0-10.6,1.8-19.6,8.9-24.1&#xA;&#x9;&#x9;c3-1.9,9.3-3.1,12.9-3.1c4.6,0,10.6,1.5,14.2,4.6C67.3,17.5,69.2,25.9,69.2,35.2z" stroke-width="0.5" style="stroke-width:0.5;"/>
        <path fill="#383535" d="M34.7,13.2c-4.6,1.3-3.9,9.3-6.5,13.1c-2.8,4-1.8,9.7-1.8,9.7l-0.2,0.2l-0.3-1.5c0,0-4.7-12-1.7-20&#xA;&#x9;&#x9;C26.3,9.2,28.8,2,46.5,0.4c9.7-0.9,14.3,1.7,17.8,2c0.1,0,0,0,0,0c0.4,0.5-2.2,1.4-2,1.6c0.3,0.2,4.1,0.4,4.9,3.2&#xA;&#x9;&#x9;c1.6,5.8,1.1,4.3,2.9,8.4c3.3,7.4-2.4,21.7-2.4,21.7c-1.5-12.8-2.4-21.1-7.5-24c0,0-11.2-1-19.3-0.7c-0.3,0,1.3,0.8,1,0.8&#xA;&#x9;&#x9;s-2.4-0.5-2.8-0.7c-0.9-0.5-4.1-1.2-5-1.1C33.5,11.5,35.1,13,34.7,13.2z" stroke-width="0.5" style="stroke-width:0.5;"/>
        <path fill="#FBCEA4" d="M73.3,36.5c-0.6,3.6-2.8,5.4-4.8,5.4s-2.4-2.9-2.4-5.4c0-1.8,0.8-3.3,1.9-4.1c0.5-0.3,2.9-0.9,3.5-0.9&#xA;&#x9;&#x9;C74,31.5,73.7,34,73.3,36.5z" stroke-width="0.5" style="stroke-width:0.5;"/>
        <path fill="#FBCEA4" d="M21.4,36.5c0.6,3.6,2.8,5.4,4.8,5.4s2.4-2.9,2.4-5.4c0-1.8-0.8-3.3-1.9-4.1c-0.5-0.3-2.9-0.9-3.5-0.9&#xA;&#x9;&#x9;C20.7,31.5,21,34,21.4,36.5z" stroke-width="0.5" style="stroke-width:0.5;"/>
      </g>
    </g>
  </g>
</svg>