<svg width="355" height="150" xmlns="http://www.w3.org/2000/svg">

 <g>
  <title>background</title>
  <rect fill="none" id="canvas_background" height="152" width="357" y="-1" x="-1"/>
 </g>
 <g>
  <title>Layer 1</title>
  <g id="svg_1">
   <path id="svg_2" d="m76.8,14.2c-34.5,0.1 -62.6,28.1 -62.6,62.6c0.1,34.5 28.1,62.6 62.6,62.6c34.5,-0.1 62.6,-28.1 62.6,-62.6c-0.1,-34.5 -28.1,-62.6 -62.6,-62.6zm0,123.9c-33.9,0 -61.3,-27.4 -61.3,-61.3c0,-33.9 27.4,-61.3 61.3,-61.3c33.9,0 61.3,27.4 61.3,61.3c0,33.9 -27.5,61.3 -61.3,61.3z" fill="none"/>
   <path id="svg_3" d="m76.8,11.5c-36,0 -65.3,29.3 -65.3,65.2c0,36 29.3,65.3 65.3,65.3c36,0 65.3,-29.3 65.3,-65.3c-0.1,-35.9 -29.4,-65.2 -65.3,-65.2zm0,127.9c-34.5,-0.1 -62.6,-28.1 -62.6,-62.6c0.1,-34.5 28.1,-62.6 62.6,-62.6c34.5,0.1 62.6,28.1 62.6,62.6c-0.1,34.5 -28.1,62.6 -62.6,62.6z" fill="#22b8eb"/>
   <path id="svg_4" d="m76.8,15.5c-33.9,0 -61.3,27.4 -61.3,61.3c0,33.9 27.4,61.3 61.3,61.3c33.9,0 61.3,-27.4 61.3,-61.3c0,-33.9 -27.5,-61.3 -61.3,-61.3zm-5.7,11c2.9,-1.6 5.4,1.7 5.8,4.7c0.7,-2.2 -1.5,-3.2 -1.9,-4.7c-0.8,-2.7 2,-4 2.5,-6.7c0.6,2.1 2.4,3.1 2.7,5.2c0.3,2.4 -2.2,3.6 -2,6.3c0.8,-2.3 1.7,-4.9 4.4,-5c3.3,-0.1 3.8,4.9 0.9,6.1c0.5,-2.5 -3.3,-3.1 -4.1,-1.3c0.1,0.4 0.7,-0.1 0.9,0.5c0.3,0.8 -0.5,0.6 -0.8,0.9c-0.2,0.2 -0.1,0.5 0,0.6c0.3,0.3 0.5,-0.1 0.6,-0.2c0.2,-0.2 0.3,-0.3 0.6,-0.3c0.2,0 0.4,0.1 0.5,0.2c0,0 0,0 0,0c0,0 0,0 0,0.1c0.2,0.2 0.3,0.5 0.3,0.8c0,0.3 -0.1,0.6 -0.3,0.8c-0.1,0.1 -0.1,0.1 -0.2,0.2c-0.8,0.5 -2.8,-0.6 -2.7,-2.4c-0.4,1 0.5,2.1 1.1,2.7c0,0 -1.9,1.8 -1.9,1.9c0,0 -2,-1.7 -2,-1.7c0.7,-0.7 1.1,-1.7 1.4,-2.8c-1,0.6 -0.8,2.9 -2.5,2.7c-0.7,-0.1 -1.3,-1.1 -0.6,-2.1c0,0 0.1,-0.1 0.1,-0.1l0,0c0.1,-0.1 0.3,-0.2 0.5,-0.2c0.2,0 0.4,0.1 0.6,0.3c0.1,0.1 0.3,0.5 0.6,0.2c0.3,-0.3 0,-0.6 -0.1,-0.6c-0.3,-0.2 -1,-0.1 -0.8,-0.8c0.2,-0.7 0.5,-0.4 1,-0.4c-0.5,-2.2 -4.6,-1.4 -4.1,1.1c-2,-0.8 -2.3,-4.9 -0.5,-6zm-18.9,15.5l50.5,0l0,4.3l-50.5,0l0,-4.3zm45.8,62.6l0,4.3l-41,0l0,-4.3l41,0zm-33.3,-3l0,-46.3l4.1,0l0,46.3l-4.1,0zm7.1,0l0,-46.3l4.1,0l0,46.3l-4.1,0zm7.2,0l0,-46.3l4.1,0l0,46.3l-4.1,0zm7.2,0l0,-46.3l4.1,0l0,46.3l-4.1,0zm-29.2,-49.3l0,-4.3l41,0l0,4.3l-41,0zm-14,42.3c-1.9,0 -3.7,-0.3 -5.6,-0.9c-1.8,-0.7 -3.7,-1.6 -5.6,-3.4l0,-0.5l0.4,0c0.7,-2.3 1.4,-4.6 2.1,-6.8l2.3,-7.3c0.8,-2.5 1.6,-4.9 2.4,-7.3l2.4,-7.3l0.4,-1.1l0.4,1l3,7.2c1,2.4 2,4.8 2.9,7.2l2.9,7.3c0.9,2.3 1.8,4.7 2.7,7.1l0.4,0l0,0.5c-1.9,1.8 -3.7,2.7 -5.6,3.4c-1.8,0.6 -3.6,0.9 -5.5,0.9zm40.5,34.9c0.5,-2.5 -3.3,-3.1 -4.1,-1.3c0.1,0.4 0.7,-0.1 0.9,0.5c0.3,0.8 -0.5,0.6 -0.8,0.9c-0.2,0.2 -0.1,0.5 0,0.6c0.3,0.3 0.5,-0.1 0.6,-0.2c0.2,-0.2 0.3,-0.3 0.6,-0.3c0.2,0 0.4,0.1 0.5,0.3c0,0 0,0 0,0c0,0 0,0 0,0.1c0.2,0.2 0.3,0.5 0.3,0.8c0,0.3 -0.1,0.6 -0.3,0.8c-0.1,0.1 -0.1,0.1 -0.2,0.2c-0.8,0.5 -2.8,-0.6 -2.7,-2.4c-0.4,1 0.5,2.1 1.1,2.7c0,0.1 -1.9,1.8 -1.9,1.9c0,0 -2,-1.7 -2,-1.7c0.7,-0.7 1.1,-1.7 1.4,-2.8c-1,0.6 -0.8,2.9 -2.5,2.7c-0.7,-0.1 -1.3,-1.1 -0.6,-2c0,-0.1 0.1,-0.1 0.1,-0.1l0,0c0.1,-0.1 0.3,-0.2 0.5,-0.2c0.2,0 0.4,0.1 0.6,0.3c0.1,0.1 0.3,0.5 0.6,0.2c0.3,-0.3 0,-0.6 -0.1,-0.6c-0.3,-0.2 -1,-0.1 -0.8,-0.8c0.2,-0.7 0.5,-0.4 1,-0.4c-0.5,-2.2 -4.6,-1.4 -4.1,1.1c-2.1,-0.6 -2.5,-4.6 -0.6,-5.8c2.9,-1.6 5.4,1.7 5.8,4.7c0.7,-2.2 -1.5,-3.2 -1.9,-4.7c-0.8,-2.7 2,-4 2.5,-6.7c0.6,2.1 2.4,3.1 2.7,5.2c0.3,2.4 -2.2,3.6 -2,6.3c0.8,-2.3 1.7,-4.9 4.4,-5c3.4,-0.5 3.8,4.5 1,5.7zm19.2,-14.7l-50.5,0l0,-4.3l50.5,0l0,4.3zm13.4,-21.1c-1.9,0.6 -3.7,0.9 -5.6,0.9c-1.9,0 -3.7,-0.3 -5.6,-0.9c-1.9,-0.7 -3.7,-1.6 -5.6,-3.4l0,-0.5l0.4,0c0.9,-2.4 1.8,-4.7 2.7,-7.1l2.9,-7.3c1,-2.4 2,-4.8 2.9,-7.2l3,-7.2l0.4,-1l0.4,1l2.4,7.3c0.8,2.4 1.6,4.9 2.4,7.3l2.3,7.3c0.7,2.3 1.4,4.5 2.1,6.8l0.4,0l0,0.5c-1.8,1.9 -3.7,2.8 -5.5,3.5z" fill="#dde7f7"/>
   <path stroke="#ffffff" id="svg_5" d="m50.7,82.9l-3.1,-7.2c-1,-2.4 -2,-4.8 -3.1,-7.2l-2.6,-6.2l-2.1,6.2c-0.8,2.4 -1.6,4.9 -2.5,7.3l-2.6,7.2c-0.8,2.2 -1.6,4.5 -2.5,6.7l2.3,-0.1l2.8,0l5.6,-0.1l5.6,0.1l2.8,0l2.4,0.1c-0.9,-2.2 -1.9,-4.5 -3,-6.8z" fill="#dde7f7"/>
   <path id="svg_6" d="m118.7,83.1l-2.6,-7.2c-0.9,-2.4 -1.7,-4.8 -2.5,-7.3l-2.1,-6.2l-2.6,6.2c-1,2.4 -2,4.8 -3.1,7.2l-3.1,7.2c-1,2.3 -2,4.6 -3.1,6.9l2.4,-0.1l2.8,0l5.6,-0.1l5.6,0.1l2.8,0l2.3,0.1c-0.7,-2.3 -1.5,-4.6 -2.4,-6.8z" fill="#dde7f7"/>
  </g>
  <text opacity="0.75" xml:space="preserve" text-anchor="start" font-family="Euphoria, sans-serif" font-size="63" id="svg_7" y="100.000059" x="163.388882" stroke-width="0" fill="#9b9b9b">律创客</text>
  <text xml:space="preserve" text-anchor="start" font-family="Euphoria, sans-serif" font-size="63" id="svg_8" y="98.888941" x="162.277765" stroke-width="0" fill="#dde7f7">律创客</text>
 </g>
</svg>