<svg version="1.1" x="0" y="0" id="il6gzebj" diagram-revision="12" width="950" height="275" xmlns="http://www.w3.org/2000/svg" xmlns:xml="http://www.w3.org/XML/1998/namespace" xmlns:xlink="http://www.w3.org/1999/xlink">
  <defs/>
  <g id="il63z8al-ko154" transform="translate(5,120)">
    <desc>root/abstractShapes/circle?version=4&amp;author=Cinergix</desc>
    <g id="image" transform="scale(1.3302751779556274,1.3302751779556274)">
      <circle vector-effect="non-scaling-stroke" fill="none" stroke="#004a80" cx="54.5" cy="54" r="54.5" style="stroke:#004a80;stroke-width:2;fill:none;" stroke-width="2"/>
    </g>
  </g>
  <g id="il63z8al-ko143" transform="translate(405,120)">
    <desc>root/abstractShapes/circle?version=4&amp;author=Cinergix</desc>
    <g id="image" transform="scale(1.3302751779556274,1.3302751779556274)">
      <circle vector-effect="non-scaling-stroke" fill="none" stroke="#004a80" cx="54.5" cy="54" r="54.5" style="stroke:#004a80;stroke-width:2;fill:none;" stroke-width="2"/>
    </g>
  </g>
  <g id="il63z8al-ko140" transform="translate(205,120)">
    <desc>root/abstractShapes/circle?version=4&amp;author=Cinergix</desc>
    <g id="image" transform="scale(1.3302751779556274,1.3302751779556274)">
      <circle vector-effect="non-scaling-stroke" fill="none" stroke="#004a80" cx="54.5" cy="54" r="54.5" style="stroke:#004a80;stroke-width:2;fill:none;" stroke-width="2"/>
    </g>
  </g>
  <g id="il6370y2-ko23" transform="translate(484.25,145)">
    <desc>root/people/officeexec?version=3&amp;author=Cinergix</desc>
    <g id="image" transform="scale(0.49005126953125,0.4981689453125)">
      <g>
        <path fill="#383535" d="M20.5,45.6c0,0,9.8,4.5,7.5,11.3s7.5,9.4,7.5,9.4h15.1l-3.8-13.2L20.5,45.6z" stroke-width="0.5" style="stroke-width:0.5;"/>
        <path fill="#FFFFFF" stroke="#231F20" stroke-width="0.5" stroke-miterlimit="10" d="M47.6,65.9" style="stroke-width:0.5;"/>
        <path fill="#F1C79F" d="M58.6,66.8C53.1,64,54.2,56,54.5,53.2c-2.4,0.9-5.2,1.4-8.2,1.4s-5.8-0.5-8.2-1.4&#xA;&#x9;&#x9;c0.3,2.8,1.4,10.8-4.1,13.6C16.7,69.3,6.2,76.4,6.2,80.2v25.4c0,2.3,1.9,4.2,4.2,4.2h75.2c2.3,0,4.2-1.9,4.2-4.2l-2.1-25.4&#xA;&#x9;&#x9;C87.7,76.3,75.8,69.2,58.6,66.8z" stroke-width="0.5" style="stroke-width:0.5;"/>
        <path fill="#E4AE80" d="M36.9,63.8c1.9-3.2,1.3-7.6,1.1-9.5c2.4,0.9,5.2,1.4,8.2,1.4s5.8-0.5,8.2-1.4c-0.2,1.9-0.6,6.3,1.1,9.5&#xA;&#x9;&#x9;c0,0-4.1,2.3-9.2,2.3C41.3,66.1,36.9,63.8,36.9,63.8z" stroke-width="0.5" style="stroke-width:0.5;"/>
        <path fill="#394073" d="M33.4,66.8C16.1,69.3,5.6,76.3,5.6,80.1l-2.1,25.4c0,2.3,1.9,4.2,4.2,4.2h77.9c2.3,0,4.2-1.9,4.2-4.2&#xA;&#x9;&#x9;l-2.1-25.4c0-3.8-11.9-10.9-29.2-13.4c0,0,2.3,3.3,1.5,5.3c-1.7,3.9-7.8,7.8-13.2,7.5c-7.2-0.3-11.8-2.1-13.2-5.7&#xA;&#x9;&#x9;C32.9,71.9,35.2,68.1,33.4,66.8z" stroke-width="0.5" style="stroke-width:0.5;"/>
        <ellipse fill="#FBCEA4" cx="46.7" cy="35.4" rx="21.6" ry="27.1" stroke-width="0.5" style="stroke-width:0.5;"/>
        <polygon fill="#3A3A3A" points="17.4,109.7 19.3,93.6 19.3,109.7 &#x9;" stroke-width="0.5" style="stroke-width:0.5;"/>
        <polygon fill="#3A3A3A" points="76.9,109.7 75.1,93.6 75.1,109.7 &#x9;" stroke-width="0.5" style="stroke-width:0.5;"/>
        <polyline fill="#EAF1EE" points="48.8,92.8 58.2,75.8 52.5,75.8 39.3,75.8 33.7,75.8 35.6,77.7 41.2,90.9 46.9,94.6 48.8,92.8 &#x9;" stroke-width="0.5" style="stroke-width:0.5;"/>
        <path fill="#EAF1EE" d="M50.3,109.3" stroke-width="0.5" style="stroke-width:0.5;"/>
        <path fill="#5466AE" d="M34,66.6c-0.1,0.1-0.3,0.2-0.4,0.2c-0.7,0-2.6,0.3-3.8,1.8c-1.5,1.9-2.3,5.7-2.7,8.6c0,0.2,0,0.5-0.1,0.7&#xA;&#x9;&#x9;c0,0.3,0.1,0.5,0.4,0.6l4.1,1.8c0.4,0.2,0.5,0.8,0.1,1l-3,2.3c-0.3,0.3-0.3,0.8,0.1,1l18.2,10l0,0c-13.3-23.9-9.4-32-9.4-32&#xA;&#x9;&#x9;L34,66.6z" stroke-width="0.5" style="stroke-width:0.5;"/>
        <path fill="#383535" d="M33.7,30.5c-4.6,1.3-3.6-7.7-6.2-4c-2.8,4-2.1,16.8,0.6,22.9c3.7,8.5,8.1,10.2,9.3,11.2&#xA;&#x9;&#x9;c0.1,0.1,0.2,0.2,0.1,0.4c-0.3,1.1-3.3,7.3-3.7,7.3c-4.7,0.6-19-0.7-15.1-28.3c0.9-6.3,1.9-17,4.9-25c2.1-5.5,4.6-12.6,22.2-14.3&#xA;&#x9;&#x9;C64.2-1,68.3,2,69.6,7.9c0,0,0.2,4.1-3.8,3.8c-0.1,0,2.3,0.1,3.8,0c1.2-0.1,2,5.7,1.9,7.5c-0.5,9-4.5,18.2-4.5,18.2&#xA;&#x9;&#x9;c-1.5-12.8-3.6-20.9-8.7-23.8C58.2,13.6,39.8,28.7,33.7,30.5z" stroke-width="0.5" style="stroke-width:0.5;"/>
        <path fill="#FBCEA4" d="M20.7,36.8c0.6,3.6,2.8,5.4,4.7,5.4c2,0,2.4-2.9,2.4-5.4c0-1.8-0.8-3.3-1.9-4.1c-0.5-0.3-2.9-0.9-3.4-0.9&#xA;&#x9;&#x9;C20,31.8,20.3,34.3,20.7,36.8z" stroke-width="0.5" style="stroke-width:0.5;"/>
        <path fill="#383535" d="M67.6,11.7c0,0,8.3-1.6,7.5,7.5s13.4,40.1-9.4,49c-3.3,1.3-5.7,0.4-7.5-1.1c-2.9-2.4-3.8-6.5-3.8-6.5&#xA;&#x9;&#x9;s13.9-10.4,13.2-20.7C66.9,29.5,63.8,21,63.8,21" stroke-width="0.5" style="stroke-width:0.5;"/>
        <path fill="#FBCEA4" d="M72.4,36.8c-0.6,3.6-2.8,5.4-4.7,5.4c-2,0-2.4-2.9-2.4-5.4c0-1.8,0.8-3.3,1.9-4.1c0.5-0.3,2.9-0.9,3.4-0.9&#xA;&#x9;&#x9;C73.1,31.8,72.8,34.3,72.4,36.8z" stroke-width="0.5" style="stroke-width:0.5;"/>
        <path fill="#5466AE" d="M58.4,66.6c0.1,0.1,0.3,0.2,0.4,0.2c0.7,0,2.6,0.3,3.8,1.8c1.5,1.9,2.3,5.7,2.7,8.6c0,0.2,0,0.5,0.1,0.7&#xA;&#x9;&#x9;c0,0.3-0.1,0.5-0.4,0.6l-4.1,1.8c-0.4,0.2-0.5,0.8-0.1,1l3,2.3c0.3,0.3,0.3,0.8-0.1,1l-16.8,10l0,0l0,0l0,0&#xA;&#x9;&#x9;C60.2,70.7,55,62.5,55,62.5L58.4,66.6z" stroke-width="0.5" style="stroke-width:0.5;"/>
      </g>
    </g>
  </g>
  <g id="il6370y2-ko2" transform="translate(430,145)">
    <desc>root/people/boss?version=3&amp;author=Cinergix</desc>
    <g id="image" transform="scale(0.49007508158683777,0.49826788902282715)">
      <g>
        <path fill="#FFFFFF" stroke="#231F20" stroke-width="0.5" stroke-miterlimit="10" d="M43.8,67.2" style="stroke-width:0.5;"/>
        <path fill="#F1C79F" d="M54.4,68c-5.3-2.8-4.3-10.5-4-13.3c-2.3,0.9-5.1,1.3-8,1.3s-5.6-0.5-8-1.3c0.3,2.8,1.3,10.5-4,13.3&#xA;&#x9;&#x9;C13.6,70.4,3.5,77.3,3.5,81v24.7c0,2.3,1.8,4.1,4.1,4.1h73.1c2.3,0,4.1-1.8,4.1-4.1l-2-24.7C82.8,77.4,71.2,70.4,54.4,68z" stroke-width="0.5" style="stroke-width:0.5;"/>
        <path fill="#E4AE80" d="M33.4,65.2c1.8-3.1,1.3-7.3,1.1-9.2c2.3,0.9,5.1,1.3,8,1.3s5.6-0.5,8-1.3c-0.2,1.8-0.6,6.2,1.1,9.2&#xA;&#x9;&#x9;c0,0-4,2.2-9,2.2C37.6,67.4,33.4,65.2,33.4,65.2z" stroke-width="0.5" style="stroke-width:0.5;"/>
        <path fill="#4D4C4C" d="M30,68.1C13.2,70.5,3,77.4,3,81l-2,24.7c0,2.3,1.8,4.1,4.1,4.1h75.8c2.3,0,4.1-1.8,4.1-4.1L83,81&#xA;&#x9;&#x9;c0-3.7-11.6-10.6-28.4-13C54.4,68,44.3,78.3,30,68.1z" stroke-width="0.5" style="stroke-width:0.5;"/>
        <path fill="#FBCEA4" d="M63.9,37.6c0,14.6-9.4,26.4-21,26.4s-21-11.8-21-26.4s9.4-26.5,21-26.4C62.3,11.4,63.9,23,63.9,37.6z" stroke-width="0.5" style="stroke-width:0.5;"/>
        <polygon fill="#3A3A3A" points="14.4,109.8 16.3,94.2 16.3,109.8 &#x9;" stroke-width="0.5" style="stroke-width:0.5;"/>
        <polygon fill="#3A3A3A" points="72.3,109.8 70.5,94.2 70.5,109.8 &#x9;" stroke-width="0.5" style="stroke-width:0.5;"/>
        <polygon fill="#EAF1EE" points="53.6,72.6 46.4,75.3 30.2,70.2 28.9,76.4 36,102 38.8,109.8 46.1,109.8 55.8,76.4 &#x9;" stroke-width="0.5" style="stroke-width:0.5;"/>
        <path fill="#A87337" d="M31.7,22.2c-4.4,1.3-5,0.9-7.5,4.5c-2.8,3.9-1.8,9.4-1.8,9.4l-0.2,0.2l-0.3-1.5c0,0-4.5-11.6-1.6-19.4&#xA;&#x9;&#x9;c2-5.3,4.5-13.4,21.6-15c23.9-2.3,19.6,8.3,22.9,15.9c3.2,7.2-2.3,21-2.3,21c-1.4-12.4-1.9-18.7-6.8-21.6&#xA;&#x9;&#x9;C55.7,15.7,37.7,20.4,31.7,22.2z" stroke-width="0.5" style="stroke-width:0.5;"/>
        <polygon fill="#DF4C73" points="40.7,75.3 38.7,109.8 46.2,109.8 44.1,75.3 &#x9;" stroke-width="0.5" style="stroke-width:0.5;"/>
        <path fill="#EAF1EE" d="M46.4,109.4" stroke-width="0.5" style="stroke-width:0.5;"/>
        <polygon fill="#DF4C73" points="42.4,72.6 39.2,76.2 42.6,80.1 45.6,76.1 &#x9;" stroke-width="0.5" style="stroke-width:0.5;"/>
        <path fill="#FBCEA4" d="M67.9,38.9c-0.5,3.5-2.7,5.3-4.6,5.3S61,41.4,61,38.9c0-1.7,0.8-3.2,1.9-3.9c0.5-0.3,2.8-0.9,3.4-0.9&#xA;&#x9;&#x9;C68.6,34,68.3,36.4,67.9,38.9z" stroke-width="0.5" style="stroke-width:0.5;"/>
        <path fill="#FBCEA4" d="M17.6,38.9c0.5,3.5,2.7,5.3,4.6,5.3s2.3-2.8,2.3-5.3c0-1.7-0.8-3.2-1.9-3.9c-0.5-0.3-2.8-0.9-3.4-0.9&#xA;&#x9;&#x9;C17,34,17.3,36.4,17.6,38.9z" stroke-width="0.5" style="stroke-width:0.5;"/>
        <path fill="#FFFFFF" d="M44.2,70.5c-7-0.4-9.5-3.6-11.3-4.5c-0.1-0.1-2.4,2.1-2.4,2.1s-0.5,0-1.3,0.3c-0.4,0.2-0.6,0.5-1.3,0.7&#xA;&#x9;&#x9;l10.4,8.5L44.2,70.5z" stroke-width="0.5" style="stroke-width:0.5;"/>
        <path fill="#FFFFFF" d="M41,70.9c7-0.4,9.5-3.6,11.3-4.5c0.1-0.1,2.4,2.1,2.4,2.1s0.5,0,1.3,0.3c0.4,0.2,0.6,0.5,1.3,0.7L46.9,78&#xA;&#x9;&#x9;L41,70.9z" stroke-width="0.5" style="stroke-width:0.5;"/>
        <path fill="#686969" d="M30.4,68.1c0,0-2.5,0-3.9,1.8c-1.5,1.8-2.2,5.6-2.6,8.4c0,0.4-0.1,0.7-0.1,1.1l5.2,2.3l-4.4,3.4l14,24.8&#xA;&#x9;&#x9;l-7.2-42.6L30.4,68.1z" stroke-width="0.5" style="stroke-width:0.5;"/>
        <path fill="#686969" d="M54.5,68.1c0,0,2.5,0,3.9,1.8c1.5,1.8,2.2,5.6,2.6,8.4c0,0.4,0.1,0.7,0.1,1.1l-5.2,2.3l4.4,3.4l-14,24.8&#xA;&#x9;&#x9;l7.2-42.6L54.5,68.1z" stroke-width="0.5" style="stroke-width:0.5;"/>
      </g>
    </g>
  </g>
  <g id="il6370y2-ko13" transform="translate(460.5,165.3499999999999)">
    <desc>root/people/woman?version=3&amp;author=Cinergix</desc>
    <g id="image" transform="scale(0.4814300537109375,0.4981689453125)">
      <g>
        <path fill="#DD744A" d="M68.1,60.3l7.7,2.3c0,0-2.5,3.8-5.4,2.6c-2.3-1-2.3,0.6-2.2,1.2c0.2,1.7,4,3.9,7.5,0.1&#xA;&#x9;&#x9;c1.1-1.1,0.6,2.7,0.6,2.7s-1.6,7.7-11.2,1.8c-8-4.9-21.4-0.7-23.2-0.1v0.1c0,0,0,0-0.1,0c-0.1,0-0.1,0-0.1,0v-0.1&#xA;&#x9;&#x9;C40,70.2,26.6,66,18.7,70.9c-9.6,5.9-11.2-1.8-11.2-1.8s-0.7-3.6,0.6-2.7c1.3,0.8,4.1,2.4,5.6,0.7c1-1.3,0.9-2.9,0.9-2.9&#xA;&#x9;&#x9;s-7-4.3-4.4-4.2c2.7,0.1,8.2-0.4,6.6-0.5c-4.2-0.4-5-4.5-5-4.5s4.7-0.5,6.4-5.3c1.7-4.7-5.7-11.9-4.4-26.3S26.6,6.7,26.6,6.7&#xA;&#x9;&#x9;s-2.1,0.7,1.9,1.2c3.6,0.5,11.9-3.4,13.3-4.1V3.7c0,0,0,0,0.1,0c0.1,0,0.1,0,0.1,0v0.1c1.4,0.7,9.7,4.6,13.3,4.1&#xA;&#x9;&#x9;c4-0.5,1.9-1.2,1.9-1.2s11.5,2.4,12.8,16.8S64,45.1,65.7,49.8c1.7,4.7,9.3,5.5,9.3,5.5S71.6,61.1,68.1,60.3z" stroke-width="0.5" style="stroke-width:0.5;"/>
        <path fill="#FFFFFF" stroke="#231F20" stroke-width="0.5" stroke-miterlimit="10" d="M43.1,66.3" style="stroke-width:0.5;"/>
        <path fill="#F1C79F" d="M53.9,67.2c-5.4-2.8-4.3-10.6-4-13.3c-2.3,0.9-5.1,1.4-8,1.4c-2.9,0-5.7-0.5-8-1.4c0.3,2.8,1.3,10.6-4,13.3&#xA;&#x9;&#x9;C12.9,69.6,2.7,76.6,2.7,80.3v24.8c0,2.3,1.8,4.1,4.1,4.1h73.6c2.3,0,4.1-1.8,4.1-4.1l-2-24.8C82.4,76.6,70.8,69.6,53.9,67.2z" stroke-width="0.5" style="stroke-width:0.5;"/>
        <path fill="#E4AE80" d="M32.7,64.3c1.8-3.1,1.3-7.4,1.1-9.2c2.3,0.9,5.1,1.4,8,1.4c2.9,0,5.7-0.5,8-1.4c-0.2,1.8-0.6,6.2,1.1,9.3&#xA;&#x9;&#x9;c0,0-4,2.2-9,2.2C36.9,66.6,32.7,64.3,32.7,64.3z" stroke-width="0.5" style="stroke-width:0.5;"/>
        <path fill="#F1C79F" d="M29.3,67.3C12.4,69.7,2,76.6,2,80.3l-2,24.8c0,2.3,1.8,4.1,4.1,4.1h76.2c2.3,0,4.1-1.8,4.1-4.1l-2-24.8&#xA;&#x9;&#x9;c0-3.7-11.6-10.7-28.5-13.1C53.9,67.2,43.7,77.6,29.3,67.3z" stroke-width="0.5" style="stroke-width:0.5;"/>
        <path fill="#369DC5" d="M60.8,68.5c13,3.1,21.6,8.6,21.6,11.8l2,24.8c0,2.3-1.8,4.1-4.1,4.1H4.1c-2.3,0-4.1-1.8-4.1-4.1l2-24.8&#xA;&#x9;&#x9;c0-3.2,7.7-8.8,20.8-11.8c0,0,0,0,0,0l19,16.7L60.8,68.5" stroke-width="0.5" style="stroke-width:0.5;"/>
        <polygon fill="#3089A5" points="13.6,109.2 15.5,93.5 15.5,109.2 &#x9;" stroke-width="0.5" style="stroke-width:0.5;"/>
        <polygon fill="#3089A5" points="71.8,109.2 70,93.5 70,109.2 &#x9;" stroke-width="0.5" style="stroke-width:0.5;"/>
        <path fill="#DD744A" d="M55.4,7.9c4-0.5,1.9-1.2,1.9-1.2s11.5,2.4,12.8,16.8" stroke-width="0.5" style="stroke-width:0.5;"/>
        <path fill="#DD744A" d="M13.6,26.1c0,0-0.7-26,22.1-26c22.8,0,15.2,13,15.2,13l-26,3.5L13.6,26.1z" stroke-width="0.5" style="stroke-width:0.5;"/>
        <polygon fill="#EAEDEE" points="29.4,84.6 41.9,108.8 54.4,84.6 &#x9;" stroke-width="0.5" style="stroke-width:0.5;"/>
        <path fill="#FFFFFF" d="M60.9,68.2l-19,16.7l-19-16.7c0,0-9.6,20.3,19,16.7C70.6,88.5,60.9,68.2,60.9,68.2z" stroke-width="0.5" style="stroke-width:0.5;"/>
        <ellipse fill="#FBCEA4" cx="42" cy="36.5" rx="21.1" ry="26.5" stroke-width="0.5" style="stroke-width:0.5;"/>
        <path fill="#FBCEA4" d="M67.2,37.9c-0.5,3.5-2.7,5.3-4.6,5.3c-1.9,0-2.3-2.8-2.3-5.3c0-1.7,0.8-3.2,1.9-4c0.5-0.3,2.8-0.9,3.4-0.9&#xA;&#x9;&#x9;C67.9,33,67.6,35.4,67.2,37.9z" stroke-width="0.5" style="stroke-width:0.5;"/>
        <path fill="#FBCEA4" d="M16.7,37.9c0.5,3.5,2.7,5.3,4.6,5.3c1.9,0,2.3-2.8,2.3-5.3c0-1.7-0.8-3.2-1.9-4C21.3,33.6,19,33,18.4,33&#xA;&#x9;&#x9;C16,33,16.3,35.4,16.7,37.9z" stroke-width="0.5" style="stroke-width:0.5;"/>
        <path fill="#DD744A" d="M40.6,14.7c0,0-0.9,2.3-3.7,5.5c0,0-4.5,5.1-12.2,2.5c-4.6-1.5-2.8,14.1-2.8,14.1l-0.2,0.2l-0.3-1.5&#xA;&#x9;&#x9;c0,0-3.5-11.3-1.6-19.5c0.7-3.2,0.2-10.1,6.4-13.7c2.5-1.5,6-2.4,11.2-2.4C46.1,0,49,4.5,51.8,5.3c1.7,0.5,6.1,1.4,7.5,2.1&#xA;&#x9;&#x9;c6.2,3.1,5.7,6.3,6.2,10c1.1,8.5-3.3,20.6-3.3,20.6c-1.4-12.5,1.2-15.6-2.9-14.9C54.2,24,43.4,22,40.6,14.7z" stroke-width="0.5" style="stroke-width:0.5;"/>
      </g>
    </g>
  </g>
  <g id="il6370y2-ko40" transform="translate(224.85000000000002,139.95000000000005)">
    <desc>root/abstractShapes/hexagon?version=3&amp;author=Cinergix</desc>
    <g id="image" transform="scale(0.9545454382896423,0.9444444179534912)">
      <polygon vector-effect="non-scaling-stroke" fill="#f96872" stroke="#e85861" points="27.082,89.5 0.582,45 27.082,0.5 80.082,0.5 109.5,45 80.082,89.5 27.082,89.5 " style="stroke:#e85861;stroke-width:1.5;fill:#f96872;" stroke-width="1.5"/>
    </g>
    <text x="0" y="0" width="52" height="24.95" transform="translate(26.45,32)">
      <tspan x="5" y="13.9400390625" style="font-family:STHeiti;font-size:14px;fill:#ffffff;">律创客</tspan>
    </text>
  </g>
  <g id="Professional-il6370y2-ko75" transform="translate(75,135)">
    <desc>root/people/boss?version=3&amp;author=Cinergix</desc>
    <g id="image" transform="scale(0.5813953876495361,0.5454545021057129)">
      <g>
        <path fill="#FFFFFF" stroke="#231F20" stroke-width="0.5" stroke-miterlimit="10" d="M43.8,67.2" style="stroke-width:0.5;"/>
        <path fill="#F1C79F" d="M54.4,68c-5.3-2.8-4.3-10.5-4-13.3c-2.3,0.9-5.1,1.3-8,1.3s-5.6-0.5-8-1.3c0.3,2.8,1.3,10.5-4,13.3&#xA;&#x9;&#x9;C13.6,70.4,3.5,77.3,3.5,81v24.7c0,2.3,1.8,4.1,4.1,4.1h73.1c2.3,0,4.1-1.8,4.1-4.1l-2-24.7C82.8,77.4,71.2,70.4,54.4,68z" stroke-width="0.5" style="stroke-width:0.5;"/>
        <path fill="#E4AE80" d="M33.4,65.2c1.8-3.1,1.3-7.3,1.1-9.2c2.3,0.9,5.1,1.3,8,1.3s5.6-0.5,8-1.3c-0.2,1.8-0.6,6.2,1.1,9.2&#xA;&#x9;&#x9;c0,0-4,2.2-9,2.2C37.6,67.4,33.4,65.2,33.4,65.2z" stroke-width="0.5" style="stroke-width:0.5;"/>
        <path fill="#4D4C4C" d="M30,68.1C13.2,70.5,3,77.4,3,81l-2,24.7c0,2.3,1.8,4.1,4.1,4.1h75.8c2.3,0,4.1-1.8,4.1-4.1L83,81&#xA;&#x9;&#x9;c0-3.7-11.6-10.6-28.4-13C54.4,68,44.3,78.3,30,68.1z" stroke-width="0.5" style="stroke-width:0.5;"/>
        <path fill="#FBCEA4" d="M63.9,37.6c0,14.6-9.4,26.4-21,26.4s-21-11.8-21-26.4s9.4-26.5,21-26.4C62.3,11.4,63.9,23,63.9,37.6z" stroke-width="0.5" style="stroke-width:0.5;"/>
        <polygon fill="#3A3A3A" points="14.4,109.8 16.3,94.2 16.3,109.8 &#x9;" stroke-width="0.5" style="stroke-width:0.5;"/>
        <polygon fill="#3A3A3A" points="72.3,109.8 70.5,94.2 70.5,109.8 &#x9;" stroke-width="0.5" style="stroke-width:0.5;"/>
        <polygon fill="#EAF1EE" points="53.6,72.6 46.4,75.3 30.2,70.2 28.9,76.4 36,102 38.8,109.8 46.1,109.8 55.8,76.4 &#x9;" stroke-width="0.5" style="stroke-width:0.5;"/>
        <path fill="#A87337" d="M31.7,22.2c-4.4,1.3-5,0.9-7.5,4.5c-2.8,3.9-1.8,9.4-1.8,9.4l-0.2,0.2l-0.3-1.5c0,0-4.5-11.6-1.6-19.4&#xA;&#x9;&#x9;c2-5.3,4.5-13.4,21.6-15c23.9-2.3,19.6,8.3,22.9,15.9c3.2,7.2-2.3,21-2.3,21c-1.4-12.4-1.9-18.7-6.8-21.6&#xA;&#x9;&#x9;C55.7,15.7,37.7,20.4,31.7,22.2z" stroke-width="0.5" style="stroke-width:0.5;"/>
        <polygon fill="#DF4C73" points="40.7,75.3 38.7,109.8 46.2,109.8 44.1,75.3 &#x9;" stroke-width="0.5" style="stroke-width:0.5;"/>
        <path fill="#EAF1EE" d="M46.4,109.4" stroke-width="0.5" style="stroke-width:0.5;"/>
        <polygon fill="#DF4C73" points="42.4,72.6 39.2,76.2 42.6,80.1 45.6,76.1 &#x9;" stroke-width="0.5" style="stroke-width:0.5;"/>
        <path fill="#FBCEA4" d="M67.9,38.9c-0.5,3.5-2.7,5.3-4.6,5.3S61,41.4,61,38.9c0-1.7,0.8-3.2,1.9-3.9c0.5-0.3,2.8-0.9,3.4-0.9&#xA;&#x9;&#x9;C68.6,34,68.3,36.4,67.9,38.9z" stroke-width="0.5" style="stroke-width:0.5;"/>
        <path fill="#FBCEA4" d="M17.6,38.9c0.5,3.5,2.7,5.3,4.6,5.3s2.3-2.8,2.3-5.3c0-1.7-0.8-3.2-1.9-3.9c-0.5-0.3-2.8-0.9-3.4-0.9&#xA;&#x9;&#x9;C17,34,17.3,36.4,17.6,38.9z" stroke-width="0.5" style="stroke-width:0.5;"/>
        <path fill="#FFFFFF" d="M44.2,70.5c-7-0.4-9.5-3.6-11.3-4.5c-0.1-0.1-2.4,2.1-2.4,2.1s-0.5,0-1.3,0.3c-0.4,0.2-0.6,0.5-1.3,0.7&#xA;&#x9;&#x9;l10.4,8.5L44.2,70.5z" stroke-width="0.5" style="stroke-width:0.5;"/>
        <path fill="#FFFFFF" d="M41,70.9c7-0.4,9.5-3.6,11.3-4.5c0.1-0.1,2.4,2.1,2.4,2.1s0.5,0,1.3,0.3c0.4,0.2,0.6,0.5,1.3,0.7L46.9,78&#xA;&#x9;&#x9;L41,70.9z" stroke-width="0.5" style="stroke-width:0.5;"/>
        <path fill="#686969" d="M30.4,68.1c0,0-2.5,0-3.9,1.8c-1.5,1.8-2.2,5.6-2.6,8.4c0,0.4-0.1,0.7-0.1,1.1l5.2,2.3l-4.4,3.4l14,24.8&#xA;&#x9;&#x9;l-7.2-42.6L30.4,68.1z" stroke-width="0.5" style="stroke-width:0.5;"/>
        <path fill="#686969" d="M54.5,68.1c0,0,2.5,0,3.9,1.8c1.5,1.8,2.2,5.6,2.6,8.4c0,0.4,0.1,0.7,0.1,1.1l-5.2,2.3l4.4,3.4l-14,24.8&#xA;&#x9;&#x9;l7.2-42.6L54.5,68.1z" stroke-width="0.5" style="stroke-width:0.5;"/>
      </g>
    </g>
  </g>
  <g id="Professional-il6370y2-ko77" transform="translate(30,140)">
    <desc>root/people/professional1?version=1&amp;author=Cinergix</desc>
    <g id="image" transform="scale(0.5813953280448914,0.5909090638160706)">
      <g>
        <g>
          <path style="stroke-width:0.5;fill:#564D44;" d="M66.4,25.2C66.4,39,56,50.3,43.3,50.3c-18.1,0-23.1-11.3-23.1-25.2S30.6,0,43.3,0&#xA;&#x9;&#x9;&#x9;S66.4,11.3,66.4,25.2z" stroke-width="0.5"/>
        </g>
        <g>
          <path style="stroke:#231F20;fill:#FFFFFF;stroke-miterlimit:10;stroke-width:0.5;" d="M43.9,66.3" stroke-width="0.5"/>
        </g>
        <g>
          <path style="stroke-width:0.5;fill:#B08E79;" d="M54.8,67.2c-5.5-2.8-4.4-10.8-4.1-13.6c-2.4,0.9-5.2,1.4-8.2,1.4s-5.8-0.5-8.2-1.4&#xA;&#x9;&#x9;&#x9;c0.3,2.8,1.4,10.8-4.1,13.6C13.1,69.6,2.7,76.7,2.7,80.5v25.3c0,2.3,1.9,4.2,4.2,4.2h74.9c2.3,0,4.2-1.9,4.2-4.2l-2.1-25.3&#xA;&#x9;&#x9;&#x9;C83.9,76.7,72.1,69.6,54.8,67.2z" stroke-width="0.5"/>
        </g>
        <g style="opacity:0.57;">
          <g>
            <path style="stroke-width:0.5;fill:#917665;" d="M33.3,64.2c1.9-3.2,1.3-7.5,1.1-9.4c2.4,0.9,5.2,1.4,8.2,1.4s5.8-0.5,8.2-1.4&#xA;&#x9;&#x9;&#x9;&#x9;c-0.2,1.9-0.6,6.3,1.1,9.5c0,0-4.1,2.3-9.2,2.3S33.3,64.2,33.3,64.2z" stroke-width="0.5"/>
          </g>
        </g>
        <g>
          <path style="stroke-width:0.5;fill:#3A3F4F;" d="M29.8,67.2C12.6,69.7,2.1,76.7,2.1,80.5L0,105.7c0,2.3,1.9,4.2,4.2,4.2h77.7c2.3,0,4.2-1.9,4.2-4.2&#xA;&#x9;&#x9;&#x9;L84,80.4c0-3.8-11.9-10.9-29.1-13.3C54.8,67.2,44.5,77.7,29.8,67.2z" stroke-width="0.5"/>
        </g>
        <g>
          <path style="stroke-width:0.5;fill:#B08E79;" d="M64.5,35.9c0,14.9-9.6,27-21.5,27s-21.5-12.1-21.5-27S31.1,8.8,43,8.9C62.9,9.2,64.5,21,64.5,35.9z&#xA;&#x9;&#x9;&#x9;" stroke-width="0.5"/>
        </g>
        <g>
          <polygon style="stroke-width:0.5;fill:#3A3A3A;" points="13.9,109.9 15.8,93.9 15.8,109.9 &#x9;&#x9;" stroke-width="0.5"/>
        </g>
        <g>
          <polygon style="stroke-width:0.5;fill:#3A3A3A;" points="73.2,109.9 71.3,93.9 71.3,109.9 &#x9;&#x9;" stroke-width="0.5"/>
        </g>
        <g>
          <polygon style="stroke-width:0.5;fill:#B9C5DC;" points="54,71.9 46.6,74.6 30,69.4 28.7,75.7 36,101.9 39.3,110 45.8,110 56.3,75.7 &#x9;&#x9;" stroke-width="0.5"/>
        </g>
        <g>
          <polygon style="stroke-width:0.5;fill:#5AAE8E;" points="40.8,74.6 38.7,109.9 46.4,110 44.2,74.6 &#x9;&#x9;" stroke-width="0.5"/>
        </g>
        <g>
          <path style="stroke-width:0.5;fill:#EAF1EE;" d="M46.6,109.6" stroke-width="0.5"/>
        </g>
        <g>
          <polygon style="stroke-width:0.5;fill:#5AAE8E;" points="42.6,71.9 39.3,75.5 42.7,79.5 45.8,75.4 &#x9;&#x9;" stroke-width="0.5"/>
        </g>
        <g>
          <path style="stroke-width:0.5;fill:#B08E79;" d="M68.6,37.3c-0.6,3.6-2.8,5.4-4.7,5.4c-2,0-2.3-2.9-2.3-5.4c0-1.8,0.8-3.3,1.9-4&#xA;&#x9;&#x9;&#x9;c0.5-0.3,2.8-0.9,3.4-0.9C69.3,32.3,69,34.8,68.6,37.3z" stroke-width="0.5"/>
        </g>
        <g>
          <path style="stroke-width:0.5;fill:#B08E79;" d="M17.2,37.3c0.6,3.6,2.8,5.4,4.7,5.4c2,0,2.3-2.9,2.3-5.4c0-1.8-0.8-3.3-1.9-4&#xA;&#x9;&#x9;&#x9;c-0.5-0.3-2.8-0.9-3.4-0.9C16.5,32.3,16.8,34.8,17.2,37.3z" stroke-width="0.5"/>
        </g>
        <g>
          <path style="stroke-width:0.5;fill:#FFFFFF;" d="M44.4,69.6c-7.2-0.4-9.8-3.7-11.5-4.6c-0.1-0.1-2.5,2.2-2.5,2.2s-0.5,0-1.4,0.3&#xA;&#x9;&#x9;&#x9;c-0.4,0.2-0.6,0.5-1.4,0.8L38.3,77L44.4,69.6z" stroke-width="0.5"/>
        </g>
        <g>
          <path style="stroke-width:0.5;fill:#FFFFFF;" d="M41.1,70.1c7.2-0.4,9.8-3.7,11.5-4.6c0.1-0.1,2.5,2.2,2.5,2.2s0.5,0,1.4,0.3&#xA;&#x9;&#x9;&#x9;c0.4,0.2,0.6,0.5,1.4,0.8l-10.7,8.7L41.1,70.1z" stroke-width="0.5"/>
        </g>
        <g>
          <path style="stroke-width:0.5;fill:#495268;" d="M30.2,67.2c0,0-2.6,0-4,1.8c-1.5,1.9-2.3,5.7-2.7,8.6c0,0.4-0.1,0.7-0.1,1.1l5.4,2.4l-4.5,3.5&#xA;&#x9;&#x9;&#x9;L38.7,110l-7.4-43.6L30.2,67.2z" stroke-width="0.5"/>
        </g>
        <g>
          <path style="stroke-width:0.5;fill:#495268;" d="M54.9,67.2c0,0,2.6,0,4,1.8c1.5,1.9,2.3,5.7,2.7,8.6c0,0.4,0.1,0.7,0.1,1.1l-5.4,2.4l4.5,3.5&#xA;&#x9;&#x9;&#x9;L46.4,110l7.4-43.6L54.9,67.2z" stroke-width="0.5"/>
        </g>
      </g>
    </g>
  </g>
  <g id="Man-il6370y2-ko78" transform="translate(45,155)">
    <desc>root/people/man?version=3&amp;author=Cinergix</desc>
    <g id="image" transform="scale(0.6315789818763733,0.6363636255264282)">
      <g>
        <path fill="#DEE8F5" d="M59.4,66.7C53.9,63.9,55,55.8,55.3,53c-2.4,0.9-5.2,1.4-8.2,1.4s-5.8-0.5-8.2-1.4&#xA;&#x9;&#x9;c0.3,2.8,1.4,10.9-4.1,13.7C17.3,69.2,6.9,76.3,6.9,80.1v25.5c0,2.3,1.9,4.2,4.2,4.2h75.6c2.3,0,4.2-1.9,4.2-4.2l-2.1-25.5&#xA;&#x9;&#x9;C88.7,76.3,76.8,69.2,59.4,66.7z" stroke-width="0.5" style="stroke-width:0.5;"/>
        <path fill="#FFFFFF" stroke="#231F20" stroke-width="0.5" stroke-miterlimit="10" d="M48.4,65.8" style="stroke-width:0.5;"/>
        <path fill="#E4AE80" d="M37.7,63.7c1.9-3.2,1.3-7.6,1.1-9.5c2.4,0.9,5.2,1.4,8.2,1.4s5.8-0.5,8.2-1.4c-0.2,1.9-0.6,6.4,1.2,9.6&#xA;&#x9;&#x9;c0,0-4.2,2.3-9.3,2.3C42,66.1,37.7,63.7,37.7,63.7z" stroke-width="0.5" style="stroke-width:0.5;"/>
        <path fill="#EAF1EE" d="M51.1,109.5" stroke-width="0.5" style="stroke-width:0.5;"/>
        <path fill="#F1C79F" d="M59.4,66.7C53.9,63.9,55,55.8,55.3,53c-2.4,0.9-5.2,1.4-8.2,1.4s-5.8-0.5-8.2-1.4&#xA;&#x9;&#x9;c0.3,2.8,1.4,10.9-4.1,13.7C17.3,69.2,6.9,76.3,6.9,80.1v25.5c0,2.3,1.9,4.2,4.2,4.2h75.6c2.3,0,4.2-1.9,4.2-4.2l-2.1-25.5&#xA;&#x9;&#x9;C88.7,76.3,76.8,69.2,59.4,66.7z" stroke-width="0.5" style="stroke-width:0.5;"/>
        <path fill="#364476" d="M34.2,66.8c-17.4,2.5-28,9.6-28,13.4l-2.1,25.4c0,2.3,1.9,4.2,4.2,4.2h78.3c2.3,0,4.2-1.9,4.2-4.2&#xA;&#x9;&#x9;l-2.1-25.5c0-3.8-12-11-29.3-13.4C59.4,66.7,49,77.3,34.2,66.8z" stroke-width="0.5" style="stroke-width:0.5;"/>
        <path fill="none" d="M34.2,66.8c-17.4,2.5-28,9.6-28,13.4l-2.1,25.4c0,2.3,1.9,4.2,4.2,4.2h78.3c2.3,0,4.2-1.9,4.2-4.2l-2.1-25.5&#xA;&#x9;&#x9;c0-3.8-12-11-29.3-13.4C59.4,66.7,49,77.3,34.2,66.8z" stroke-width="0.5" style="stroke-width:0.5;"/>
        <g>
          <path fill="#4B658C" d="M39.7,69.9c-4.7-0.3-9.2-0.8-13.5-1.6c-0.6,0.2-1.3,0.3-1.9,0.5c5.8,1.1,12,1.8,18.4,2&#xA;&#x9;&#x9;&#x9;C41.7,70.6,40.7,70.3,39.7,69.9z" stroke-width="0.5" style="stroke-width:0.5;"/>
          <path fill="#4B658C" d="M51.7,70.9c6.3-0.2,12.4-0.9,18.1-2c-0.6-0.2-1.3-0.3-1.9-0.5c-4.2,0.7-8.7,1.3-13.4,1.5&#xA;&#x9;&#x9;&#x9;C53.7,70.3,52.7,70.6,51.7,70.9z" stroke-width="0.5" style="stroke-width:0.5;"/>
        </g>
        <path fill="#4B658C" d="M74.2,70.2c-0.5-0.2-1-0.3-1.5-0.5c-7.6,1.7-16.3,2.7-25.5,2.7c-9.3,0-18-1-25.7-2.7&#xA;&#x9;&#x9;c-0.5,0.2-1,0.3-1.5,0.5c8.2,2,17.5,3.1,27.2,3.1C56.8,73.3,66,72.2,74.2,70.2z" stroke-width="0.5" style="stroke-width:0.5;"/>
        <path fill="#4B658C" d="M80.6,72.9c-0.4-0.2-0.7-0.4-1.1-0.5c-9.1,2.8-20.2,4.5-32.3,4.5c-12.1,0-23.2-1.7-32.3-4.5&#xA;&#x9;&#x9;c-0.4,0.2-0.7,0.4-1.1,0.5c9.6,3.1,21.2,4.8,33.4,4.8C59.4,77.7,71,76,80.6,72.9z" stroke-width="0.5" style="stroke-width:0.5;"/>
        <path fill="#4B658C" d="M84.2,75c-0.3-0.2-0.6-0.4-0.9-0.6C73.6,78,61,80.2,47.2,80.2c-13.8,0-26.4-2.2-36.1-5.8&#xA;&#x9;&#x9;c-0.3,0.2-0.6,0.4-0.8,0.6c10.2,3.9,23.2,6,36.9,6C61,81,74,78.9,84.2,75z" stroke-width="0.5" style="stroke-width:0.5;"/>
        <path fill="#4B658C" d="M47.2,84.8c-15.6,0-29.7-2.8-39.8-7.3C7.2,77.7,7,78,6.9,78.2c0.2,0.1,0.4,0.2,0.7,0.3&#xA;&#x9;&#x9;c10.6,4.6,24.7,7.1,39.6,7.1c15,0,29-2.5,39.6-7.1c0.4-0.2,0.7-0.3,1-0.5c-0.2-0.2-0.4-0.4-0.6-0.6C77.2,82,63,84.8,47.2,84.8z" stroke-width="0.5" style="stroke-width:0.5;"/>
        <path fill="#4B658C" d="M6.1,81.6L6,82.5c0.5,0.2,1,0.5,1.6,0.7c10.6,4.6,24.7,7.1,39.6,7.1c15,0,29-2.5,39.6-7.1&#xA;&#x9;&#x9;c0.7-0.3,1.4-0.6,2.1-1l-0.1-0.9c-10.2,5-25.1,8.1-41.7,8.1C30.9,89.5,16.2,86.4,6.1,81.6z" stroke-width="0.5" style="stroke-width:0.5;"/>
        <path fill="#4B658C" d="M5.8,85.4l-0.1,0.9c0.6,0.3,1.2,0.6,1.9,0.9c10.6,4.6,24.7,7.1,39.6,7.1c15,0,29-2.5,39.6-7.1&#xA;&#x9;&#x9;c0.8-0.4,1.6-0.7,2.4-1.1l-0.1-0.9c-10.2,5.1-25.2,8.3-42,8.3C30.7,93.5,15.9,90.4,5.8,85.4z" stroke-width="0.5" style="stroke-width:0.5;"/>
        <path fill="#4B658C" d="M89.5,89.7l-0.1-0.9c-10.2,5.2-25.3,8.4-42.3,8.4C30.5,97.2,15.5,94,5.4,89l-0.1,0.9c0.7,0.3,1.4,0.7,2.2,1&#xA;&#x9;&#x9;C18.1,95.5,32.2,98,47.1,98c10.4,0,20.3-1.2,29-3.5c3.8-1,7.4-2.2,10.6-3.6C87.8,90.6,88.7,90.1,89.5,89.7z" stroke-width="0.5" style="stroke-width:0.5;"/>
        <path fill="#4B658C" d="M5.2,92.7l-0.1,0.9c0.8,0.4,1.6,0.8,2.5,1.2c10.6,4.6,24.7,7.1,39.6,7.1c15,0,29-2.5,39.6-7.1&#xA;&#x9;&#x9;c1.1-0.5,2.1-0.9,3-1.4l-0.1-0.9c-10.2,5.3-25.5,8.6-42.6,8.6C30.4,101,15.3,97.8,5.2,92.7z" stroke-width="0.5" style="stroke-width:0.5;"/>
        <path fill="none" d="M34.2,66.8c-17.4,2.5-28,9.6-28,13.4l-2.1,25.4c0,2.3,1.9,4.2,4.2,4.2h78.3c2.3,0,4.2-1.9,4.2-4.2l-2.1-25.5&#xA;&#x9;&#x9;c0-3.8-12-11-29.3-13.4C59.4,66.7,49,77.3,34.2,66.8z" stroke-width="0.5" style="stroke-width:0.5;"/>
        <path fill="none" d="M34.2,66.8c-17.4,2.5-28,9.6-28,13.4l-2.1,25.4c0,2.3,1.9,4.2,4.2,4.2h78.3c2.3,0,4.2-1.9,4.2-4.2l-2.1-25.5&#xA;&#x9;&#x9;c0-3.8-12-11-29.3-13.4C59.4,66.7,49,77.3,34.2,66.8z" stroke-width="0.5" style="stroke-width:0.5;"/>
        <path fill="#4B658C" d="M4.9,96.2l-0.1,0.9c0.9,0.4,1.8,0.9,2.8,1.3c10.6,4.6,24.7,7.1,39.6,7.1c15,0,29-2.5,39.6-7.1&#xA;&#x9;&#x9;c1.2-0.5,2.3-1,3.3-1.6l-0.1-0.9c-10.2,5.3-25.6,8.7-42.9,8.7C30.2,104.6,15,101.3,4.9,96.2z" stroke-width="0.5" style="stroke-width:0.5;"/>
        <path fill="#4B658C" d="M4.6,99l-0.1,0.9c1,0.5,1.9,1,3,1.4c10.6,4.6,24.7,7.1,39.6,7.1c15,0,29-2.5,39.6-7.1&#xA;&#x9;&#x9;c1.3-0.5,2.4-1.1,3.5-1.7l-0.1-0.9c-10.2,5.4-25.7,8.9-43.1,8.9C30.1,107.6,14.8,104.2,4.6,99z" stroke-width="0.5" style="stroke-width:0.5;"/>
        <g>
          <path fill="#4B658C" d="M90.7,103.4l-0.1-0.9c-5.9,3.2-13.6,5.7-22.5,7.3h4.4c5.2-1.2,10.1-2.7,14.4-4.5&#xA;&#x9;&#x9;&#x9;C88.2,104.7,89.5,104.1,90.7,103.4z" stroke-width="0.5" style="stroke-width:0.5;"/>
          <path fill="#4B658C" d="M4.3,103.7c1,0.5,2.1,1.1,3.3,1.6c4.3,1.9,9.1,3.4,14.4,4.5h4.4c-8.6-1.5-16.1-3.9-22-7L4.3,103.7z" stroke-width="0.5" style="stroke-width:0.5;"/>
        </g>
        <g>
          <path fill="#4B658C" d="M90.6,107.1c0.1-0.3,0.2-0.7,0.2-1.1c-2.6,1.4-5.5,2.7-8.7,3.8h2.4c0.8-0.3,1.6-0.6,2.3-0.9&#xA;&#x9;&#x9;&#x9;C88.1,108.3,89.4,107.7,90.6,107.1z" stroke-width="0.5" style="stroke-width:0.5;"/>
          <path fill="#4B658C" d="M4.5,107.4c1,0.5,2,1,3,1.4c0.7,0.3,1.5,0.6,2.3,0.9h2.4c-3-1-5.7-2.2-8.1-3.5&#xA;&#x9;&#x9;&#x9;C4.2,106.7,4.4,107.1,4.5,107.4z" stroke-width="0.5" style="stroke-width:0.5;"/>
        </g>
        <polygon fill="#2E3B60" points="18.1,109.8 20,93.7 20,109.8 &#x9;" stroke-width="0.5" style="stroke-width:0.5;"/>
        <polygon fill="#2E3B60" points="77.9,109.8 76,93.7 76,109.8 &#x9;" stroke-width="0.5" style="stroke-width:0.5;"/>
        <path fill="#DEE8F5" d="M63.5,67.4c-0.8-0.3-2.5-0.6-2.5-0.6l-1.5-0.4c0,0-2.3-1.4-2.4-1.4c-1.4,0.8-4.9,3.1-10,4.1&#xA;&#x9;&#x9;c-6-0.7-8.3-3.6-10-4.5c-0.1-0.1-2.7,2-2.7,2h-0.6c0,0-2.5,0.3-3,0.8l11.9,9.2l4.5,24L51.5,77L63.5,67.4z" stroke-width="0.5" style="stroke-width:0.5;"/>
        <path fill="#FBCEA4" d="M69.2,35.2c0,15.1-9.7,27.3-21.7,27.3S25.8,50.3,25.8,35.2c0-10.6,1.8-19.6,8.9-24.1&#xA;&#x9;&#x9;c3-1.9,9.3-3.1,12.9-3.1c4.6,0,10.6,1.5,14.2,4.6C67.3,17.5,69.2,25.9,69.2,35.2z" stroke-width="0.5" style="stroke-width:0.5;"/>
        <path fill="#383535" d="M34.7,13.2c-4.6,1.3-3.9,9.3-6.5,13.1c-2.8,4-1.8,9.7-1.8,9.7l-0.2,0.2l-0.3-1.5c0,0-4.7-12-1.7-20&#xA;&#x9;&#x9;C26.3,9.2,28.8,2,46.5,0.4c9.7-0.9,14.3,1.7,17.8,2c0.1,0,0,0,0,0c0.4,0.5-2.2,1.4-2,1.6c0.3,0.2,4.1,0.4,4.9,3.2&#xA;&#x9;&#x9;c1.6,5.8,1.1,4.3,2.9,8.4c3.3,7.4-2.4,21.7-2.4,21.7c-1.5-12.8-2.4-21.1-7.5-24c0,0-11.2-1-19.3-0.7c-0.3,0,1.3,0.8,1,0.8&#xA;&#x9;&#x9;s-2.4-0.5-2.8-0.7c-0.9-0.5-4.1-1.2-5-1.1C33.5,11.5,35.1,13,34.7,13.2z" stroke-width="0.5" style="stroke-width:0.5;"/>
        <path fill="#FBCEA4" d="M73.3,36.5c-0.6,3.6-2.8,5.4-4.8,5.4s-2.4-2.9-2.4-5.4c0-1.8,0.8-3.3,1.9-4.1c0.5-0.3,2.9-0.9,3.5-0.9&#xA;&#x9;&#x9;C74,31.5,73.7,34,73.3,36.5z" stroke-width="0.5" style="stroke-width:0.5;"/>
        <path fill="#FBCEA4" d="M21.4,36.5c0.6,3.6,2.8,5.4,4.8,5.4s2.4-2.9,2.4-5.4c0-1.8-0.8-3.3-1.9-4.1c-0.5-0.3-2.9-0.9-3.5-0.9&#xA;&#x9;&#x9;C20.7,31.5,21,34,21.4,36.5z" stroke-width="0.5" style="stroke-width:0.5;"/>
      </g>
    </g>
  </g>
  <g id="TextBox-il6370y2-ko137" transform="translate(5,225)">
    <desc>root/textControl?version=&amp;author=</desc>
    <g id="image"/>
    <text x="0" y="0" width="52" height="20.95" transform="translate(46.5,5.5)">
      <tspan x="5" y="13.9400390625" style="font-family:STHeiti;font-size:14px;fill:#004a80;">当事人</tspan>
    </text>
  </g>
  <g id="il63z8al-ko138" transform="translate(205,225)">
    <desc>root/textControl?version=&amp;author=</desc>
    <g id="image"/>
    <text x="0" y="0" width="38" height="20.95" transform="translate(53.45,5.5)">
      <tspan x="5" y="13.9400390625" style="font-family:STHeiti;font-size:14px;fill:#004a80;">我们</tspan>
    </text>
  </g>
  <g id="il63z8al-ko146" transform="translate(405,225)">
    <desc>root/textControl?version=&amp;author=</desc>
    <g id="image"/>
    <text x="0" y="0" width="66" height="20.95" transform="translate(39.45,5.5)">
      <tspan x="5" y="13.9400390625" style="font-family:STHeiti;font-size:14px;fill:#004a80;">推荐律师</tspan>
    </text>
  </g>
  <g id="il63z8al-ko148" transform="translate(605,120)">
    <desc>root/abstractShapes/circle?version=4&amp;author=Cinergix</desc>
    <g id="image" transform="scale(1.3302751779556274,1.3302751779556274)">
      <circle vector-effect="non-scaling-stroke" fill="none" stroke="#004a80" cx="54.5" cy="54" r="54.5" style="stroke:#004a80;stroke-width:2;fill:none;" stroke-width="2"/>
    </g>
  </g>
  <g id="Connector-il63z8al-ko156" transform="translate(-300,-1350)">
    <g id="graphics">
      <path d="M 450 1545 L 505 1545 " fill="none" stroke="#004a80" stroke-width="2"/>
    </g>
    <g id="toIcon" transform="translate(505,1545) rotate(90)">
      <metadata id="metadata3057">
        <aaa:RDF xmlns:aaa="http://www.w3.org/1999/02/22-rdf-syntax-ns#"/>
      </metadata>
      <aaa:namedview pagecolor="#ffffff" bordercolor="#666666" borderopacity="1" objecttolerance="10" gridtolerance="10" guidetolerance="10" aab:pageopacity="0" aab:pageshadow="2" aab:window-width="1366" aab:window-height="706" id="namedview3053" showgrid="true" aab:zoom="5.6568543" aab:cx="35.742573" aab:cy="39.38026" aab:window-x="-8" aab:window-y="-8" aab:window-maximized="1" aab:current-layer="Layer_1" xmlns:aaa="http://sodipodi.sourceforge.net/DTD/sodipodi-0.dtd" xmlns:aab="http://www.inkscape.org/namespaces/inkscape"/>
      <polygon points="0,0 8,8 -8,8 " id="polygon3051" transform="translate(0.00390625,0.71874995)" style="stroke:#004a80;fill:#004a80;stroke-width:2;" stroke="#004a80" stroke-width="2" fill="#004a80"/>
    </g>
  </g>
  <g id="Connector-il63z8al-ko157" transform="translate(-300,-1350)">
    <g id="graphics">
      <path d="M 650 1545 L 705 1545 " fill="none" stroke="#004a80" stroke-width="2"/>
    </g>
    <g id="toIcon" transform="translate(705,1545) rotate(90)">
      <metadata id="metadata3057">
        <aaa:RDF xmlns:aaa="http://www.w3.org/1999/02/22-rdf-syntax-ns#"/>
      </metadata>
      <aaa:namedview pagecolor="#ffffff" bordercolor="#666666" borderopacity="1" objecttolerance="10" gridtolerance="10" guidetolerance="10" aab:pageopacity="0" aab:pageshadow="2" aab:window-width="1366" aab:window-height="706" id="namedview3053" showgrid="true" aab:zoom="5.6568543" aab:cx="35.742573" aab:cy="39.38026" aab:window-x="-8" aab:window-y="-8" aab:window-maximized="1" aab:current-layer="Layer_1" xmlns:aaa="http://sodipodi.sourceforge.net/DTD/sodipodi-0.dtd" xmlns:aab="http://www.inkscape.org/namespaces/inkscape"/>
      <polygon points="0,0 8,8 -8,8 " id="polygon3051" transform="translate(0.00390625,0.71874995)" style="stroke:#004a80;fill:#004a80;stroke-width:2;" stroke="#004a80" stroke-width="2" fill="#004a80"/>
    </g>
  </g>
  <g id="Connector-il63z8al-ko158" transform="translate(-300,-1350)">
    <g id="graphics">
      <path d="M 850 1545 L 905 1545 " fill="none" stroke="#004a80" stroke-width="2"/>
    </g>
    <g id="toIcon" transform="translate(905,1545) rotate(90)">
      <metadata id="metadata3057">
        <aaa:RDF xmlns:aaa="http://www.w3.org/1999/02/22-rdf-syntax-ns#"/>
      </metadata>
      <aaa:namedview pagecolor="#ffffff" bordercolor="#666666" borderopacity="1" objecttolerance="10" gridtolerance="10" guidetolerance="10" aab:pageopacity="0" aab:pageshadow="2" aab:window-width="1366" aab:window-height="706" id="namedview3053" showgrid="true" aab:zoom="5.6568543" aab:cx="35.742573" aab:cy="39.38026" aab:window-x="-8" aab:window-y="-8" aab:window-maximized="1" aab:current-layer="Layer_1" xmlns:aaa="http://sodipodi.sourceforge.net/DTD/sodipodi-0.dtd" xmlns:aab="http://www.inkscape.org/namespaces/inkscape"/>
      <polygon points="0,0 8,8 -8,8 " id="polygon3051" transform="translate(0.00390625,0.71874995)" style="stroke:#004a80;fill:#004a80;stroke-width:2;" stroke="#004a80" stroke-width="2" fill="#004a80"/>
    </g>
  </g>
  <g id="Rounded Rectangle-il63z8al-ko161" transform="translate(645,130)">
    <desc>root/abstractShapes/hRoundedRectangle?version=4&amp;author=Cinergix</desc>
    <g id="image">
      <g id="graphics">
        <rect x="0.25" y="0.25" width="67.5" height="27.675114417076113" rx="13.837557208538056" fill="#f96872" stroke="#e85861" stroke-width="0.5" stroke-linejoin="round" stroke-linecap="round"/>
      </g>
    </g>
    <text x="0" y="0" width="38" height="24.95" transform="translate(14.75,3.35)">
      <tspan x="5" y="13.9400390625" style="font-family:STHeiti;font-size:14px;fill:#ffffff;">核心</tspan>
    </text>
  </g>
  <g id="il63z8al-ko162" transform="translate(600,155)">
    <desc>root/textControl?version=&amp;author=</desc>
    <g id="image"/>
    <text x="0" y="0" width="76.35" height="20.95" transform="translate(39.3,5.5)">
      <tspan x="5" y="13.9400390625" style="font-family:STHeiti;font-size:14px;fill:#004a80;">(案件预审)</tspan>
    </text>
  </g>
  <g id="il63z8al-ko164" transform="translate(604.95,175.79999999999995)">
    <desc>root/textControl?version=&amp;author=</desc>
    <g id="image"/>
    <text x="0" y="0" width="38" height="20.95" transform="translate(8.45,4.1)">
      <tspan x="5" y="13.9400390625" style="font-family:STHeiti;font-size:14px;fill:#004a80;">我们</tspan>
    </text>
  </g>
  <g id="il63z8al-ko166" transform="translate(700,175.8499999999999)">
    <desc>root/textControl?version=&amp;author=</desc>
    <g id="image"/>
    <text x="0" y="0" width="38" height="20.95" transform="translate(5.95,4.1)">
      <tspan x="5" y="13.9400390625" style="font-family:STHeiti;font-size:14px;fill:#004a80;">律师</tspan>
    </text>
  </g>
  <g id="Connector-il63z8al-ko168" transform="translate(-300,-1350)">
    <g id="graphics">
      <path d="M 950 1540 L 975 1540 L 1005 1540 " fill="none" stroke="#555555" stroke-width="2" mask="url(#TextboxMask-Connector-il63z8al-ko168)"/>
    </g>
    <g id="fromIcon" transform="translate(950,1540) rotate(-90)">
      <metadata id="metadata3057">
        <aaa:RDF xmlns:aaa="http://www.w3.org/1999/02/22-rdf-syntax-ns#"/>
      </metadata>
      <aaa:namedview pagecolor="#ffffff" bordercolor="#666666" borderopacity="1" objecttolerance="10" gridtolerance="10" guidetolerance="10" aab:pageopacity="0" aab:pageshadow="2" aab:window-width="1366" aab:window-height="706" id="namedview3053" showgrid="true" aab:zoom="5.6568543" aab:cx="35.742573" aab:cy="39.38026" aab:window-x="-8" aab:window-y="-8" aab:window-maximized="1" aab:current-layer="Layer_1" xmlns:aaa="http://sodipodi.sourceforge.net/DTD/sodipodi-0.dtd" xmlns:aab="http://www.inkscape.org/namespaces/inkscape"/>
      <polygon points="0,0 8,8 -8,8 " id="polygon3051" transform="translate(0.00390625,0.71874995)" style="stroke:#555555;fill:#555555;stroke-width:2;" stroke="#555555" stroke-width="2" fill="#555555"/>
    </g>
    <g id="toIcon" transform="translate(1005,1540) rotate(90)">
      <metadata id="metadata3057">
        <aaa:RDF xmlns:aaa="http://www.w3.org/1999/02/22-rdf-syntax-ns#"/>
      </metadata>
      <aaa:namedview pagecolor="#ffffff" bordercolor="#666666" borderopacity="1" objecttolerance="10" gridtolerance="10" guidetolerance="10" aab:pageopacity="0" aab:pageshadow="2" aab:window-width="1366" aab:window-height="706" id="namedview3053" showgrid="true" aab:zoom="5.6568543" aab:cx="35.742573" aab:cy="39.38026" aab:window-x="-8" aab:window-y="-8" aab:window-maximized="1" aab:current-layer="Layer_1" xmlns:aaa="http://sodipodi.sourceforge.net/DTD/sodipodi-0.dtd" xmlns:aab="http://www.inkscape.org/namespaces/inkscape"/>
      <polygon points="0,0 8,8 -8,8 " id="polygon3051" transform="translate(0.00390625,0.71874995)" style="stroke:#555555;fill:#555555;stroke-width:2;" stroke="#555555" stroke-width="2" fill="#555555"/>
    </g>
    <text x="0" y="0" width="33" height="20.95" transform="translate(961,1529.5)">
      <tspan x="2.5" y="13.9400390625" style="font-family:STHeiti;font-size:14px;fill:#4b4b4b;">对接</tspan>
    </text>
    <mask id="TextboxMask-Connector-il63z8al-ko168">
      <rect x="0" y="0" width="1500" height="1500" style="fill:white;"/>
      <rect x="0" y="0" width="33" height="20.95" transform="translate(961,1529.5)"/>
    </mask>
  </g>
  <g id="Professional-il63z8al-ko169" transform="translate(635,210)">
    <desc>root/people/boss?version=3&amp;author=Cinergix</desc>
    <g id="image" transform="scale(0.3488371968269348,0.3181818127632141)">
      <g>
        <path fill="#FFFFFF" stroke="#231F20" stroke-width="0.5" stroke-miterlimit="10" d="M43.8,67.2" style="stroke-width:0.5;"/>
        <path fill="#F1C79F" d="M54.4,68c-5.3-2.8-4.3-10.5-4-13.3c-2.3,0.9-5.1,1.3-8,1.3s-5.6-0.5-8-1.3c0.3,2.8,1.3,10.5-4,13.3&#xA;&#x9;&#x9;C13.6,70.4,3.5,77.3,3.5,81v24.7c0,2.3,1.8,4.1,4.1,4.1h73.1c2.3,0,4.1-1.8,4.1-4.1l-2-24.7C82.8,77.4,71.2,70.4,54.4,68z" stroke-width="0.5" style="stroke-width:0.5;"/>
        <path fill="#E4AE80" d="M33.4,65.2c1.8-3.1,1.3-7.3,1.1-9.2c2.3,0.9,5.1,1.3,8,1.3s5.6-0.5,8-1.3c-0.2,1.8-0.6,6.2,1.1,9.2&#xA;&#x9;&#x9;c0,0-4,2.2-9,2.2C37.6,67.4,33.4,65.2,33.4,65.2z" stroke-width="0.5" style="stroke-width:0.5;"/>
        <path fill="#4D4C4C" d="M30,68.1C13.2,70.5,3,77.4,3,81l-2,24.7c0,2.3,1.8,4.1,4.1,4.1h75.8c2.3,0,4.1-1.8,4.1-4.1L83,81&#xA;&#x9;&#x9;c0-3.7-11.6-10.6-28.4-13C54.4,68,44.3,78.3,30,68.1z" stroke-width="0.5" style="stroke-width:0.5;"/>
        <path fill="#FBCEA4" d="M63.9,37.6c0,14.6-9.4,26.4-21,26.4s-21-11.8-21-26.4s9.4-26.5,21-26.4C62.3,11.4,63.9,23,63.9,37.6z" stroke-width="0.5" style="stroke-width:0.5;"/>
        <polygon fill="#3A3A3A" points="14.4,109.8 16.3,94.2 16.3,109.8 &#x9;" stroke-width="0.5" style="stroke-width:0.5;"/>
        <polygon fill="#3A3A3A" points="72.3,109.8 70.5,94.2 70.5,109.8 &#x9;" stroke-width="0.5" style="stroke-width:0.5;"/>
        <polygon fill="#EAF1EE" points="53.6,72.6 46.4,75.3 30.2,70.2 28.9,76.4 36,102 38.8,109.8 46.1,109.8 55.8,76.4 &#x9;" stroke-width="0.5" style="stroke-width:0.5;"/>
        <path fill="#A87337" d="M31.7,22.2c-4.4,1.3-5,0.9-7.5,4.5c-2.8,3.9-1.8,9.4-1.8,9.4l-0.2,0.2l-0.3-1.5c0,0-4.5-11.6-1.6-19.4&#xA;&#x9;&#x9;c2-5.3,4.5-13.4,21.6-15c23.9-2.3,19.6,8.3,22.9,15.9c3.2,7.2-2.3,21-2.3,21c-1.4-12.4-1.9-18.7-6.8-21.6&#xA;&#x9;&#x9;C55.7,15.7,37.7,20.4,31.7,22.2z" stroke-width="0.5" style="stroke-width:0.5;"/>
        <polygon fill="#DF4C73" points="40.7,75.3 38.7,109.8 46.2,109.8 44.1,75.3 &#x9;" stroke-width="0.5" style="stroke-width:0.5;"/>
        <path fill="#EAF1EE" d="M46.4,109.4" stroke-width="0.5" style="stroke-width:0.5;"/>
        <polygon fill="#DF4C73" points="42.4,72.6 39.2,76.2 42.6,80.1 45.6,76.1 &#x9;" stroke-width="0.5" style="stroke-width:0.5;"/>
        <path fill="#FBCEA4" d="M67.9,38.9c-0.5,3.5-2.7,5.3-4.6,5.3S61,41.4,61,38.9c0-1.7,0.8-3.2,1.9-3.9c0.5-0.3,2.8-0.9,3.4-0.9&#xA;&#x9;&#x9;C68.6,34,68.3,36.4,67.9,38.9z" stroke-width="0.5" style="stroke-width:0.5;"/>
        <path fill="#FBCEA4" d="M17.6,38.9c0.5,3.5,2.7,5.3,4.6,5.3s2.3-2.8,2.3-5.3c0-1.7-0.8-3.2-1.9-3.9c-0.5-0.3-2.8-0.9-3.4-0.9&#xA;&#x9;&#x9;C17,34,17.3,36.4,17.6,38.9z" stroke-width="0.5" style="stroke-width:0.5;"/>
        <path fill="#FFFFFF" d="M44.2,70.5c-7-0.4-9.5-3.6-11.3-4.5c-0.1-0.1-2.4,2.1-2.4,2.1s-0.5,0-1.3,0.3c-0.4,0.2-0.6,0.5-1.3,0.7&#xA;&#x9;&#x9;l10.4,8.5L44.2,70.5z" stroke-width="0.5" style="stroke-width:0.5;"/>
        <path fill="#FFFFFF" d="M41,70.9c7-0.4,9.5-3.6,11.3-4.5c0.1-0.1,2.4,2.1,2.4,2.1s0.5,0,1.3,0.3c0.4,0.2,0.6,0.5,1.3,0.7L46.9,78&#xA;&#x9;&#x9;L41,70.9z" stroke-width="0.5" style="stroke-width:0.5;"/>
        <path fill="#686969" d="M30.4,68.1c0,0-2.5,0-3.9,1.8c-1.5,1.8-2.2,5.6-2.6,8.4c0,0.4-0.1,0.7-0.1,1.1l5.2,2.3l-4.4,3.4l14,24.8&#xA;&#x9;&#x9;l-7.2-42.6L30.4,68.1z" stroke-width="0.5" style="stroke-width:0.5;"/>
        <path fill="#686969" d="M54.5,68.1c0,0,2.5,0,3.9,1.8c1.5,1.8,2.2,5.6,2.6,8.4c0,0.4,0.1,0.7,0.1,1.1l-5.2,2.3l4.4,3.4l-14,24.8&#xA;&#x9;&#x9;l7.2-42.6L54.5,68.1z" stroke-width="0.5" style="stroke-width:0.5;"/>
      </g>
    </g>
  </g>
  <g id="Professional-il63z8al-ko170" transform="translate(690,210)">
    <desc>root/people/professional1?version=1&amp;author=Cinergix</desc>
    <g id="image" transform="scale(0.3488372266292572,0.31820055842399597)">
      <g>
        <g>
          <path style="stroke-width:0.5;fill:#564D44;" d="M66.4,25.2C66.4,39,56,50.3,43.3,50.3c-18.1,0-23.1-11.3-23.1-25.2S30.6,0,43.3,0&#xA;&#x9;&#x9;&#x9;S66.4,11.3,66.4,25.2z" stroke-width="0.5"/>
        </g>
        <g>
          <path style="stroke:#231F20;fill:#FFFFFF;stroke-miterlimit:10;stroke-width:0.5;" d="M43.9,66.3" stroke-width="0.5"/>
        </g>
        <g>
          <path style="stroke-width:0.5;fill:#B08E79;" d="M54.8,67.2c-5.5-2.8-4.4-10.8-4.1-13.6c-2.4,0.9-5.2,1.4-8.2,1.4s-5.8-0.5-8.2-1.4&#xA;&#x9;&#x9;&#x9;c0.3,2.8,1.4,10.8-4.1,13.6C13.1,69.6,2.7,76.7,2.7,80.5v25.3c0,2.3,1.9,4.2,4.2,4.2h74.9c2.3,0,4.2-1.9,4.2-4.2l-2.1-25.3&#xA;&#x9;&#x9;&#x9;C83.9,76.7,72.1,69.6,54.8,67.2z" stroke-width="0.5"/>
        </g>
        <g style="opacity:0.57;">
          <g>
            <path style="stroke-width:0.5;fill:#917665;" d="M33.3,64.2c1.9-3.2,1.3-7.5,1.1-9.4c2.4,0.9,5.2,1.4,8.2,1.4s5.8-0.5,8.2-1.4&#xA;&#x9;&#x9;&#x9;&#x9;c-0.2,1.9-0.6,6.3,1.1,9.5c0,0-4.1,2.3-9.2,2.3S33.3,64.2,33.3,64.2z" stroke-width="0.5"/>
          </g>
        </g>
        <g>
          <path style="stroke-width:0.5;fill:#3A3F4F;" d="M29.8,67.2C12.6,69.7,2.1,76.7,2.1,80.5L0,105.7c0,2.3,1.9,4.2,4.2,4.2h77.7c2.3,0,4.2-1.9,4.2-4.2&#xA;&#x9;&#x9;&#x9;L84,80.4c0-3.8-11.9-10.9-29.1-13.3C54.8,67.2,44.5,77.7,29.8,67.2z" stroke-width="0.5"/>
        </g>
        <g>
          <path style="stroke-width:0.5;fill:#B08E79;" d="M64.5,35.9c0,14.9-9.6,27-21.5,27s-21.5-12.1-21.5-27S31.1,8.8,43,8.9C62.9,9.2,64.5,21,64.5,35.9z&#xA;&#x9;&#x9;&#x9;" stroke-width="0.5"/>
        </g>
        <g>
          <polygon style="stroke-width:0.5;fill:#3A3A3A;" points="13.9,109.9 15.8,93.9 15.8,109.9 &#x9;&#x9;" stroke-width="0.5"/>
        </g>
        <g>
          <polygon style="stroke-width:0.5;fill:#3A3A3A;" points="73.2,109.9 71.3,93.9 71.3,109.9 &#x9;&#x9;" stroke-width="0.5"/>
        </g>
        <g>
          <polygon style="stroke-width:0.5;fill:#B9C5DC;" points="54,71.9 46.6,74.6 30,69.4 28.7,75.7 36,101.9 39.3,110 45.8,110 56.3,75.7 &#x9;&#x9;" stroke-width="0.5"/>
        </g>
        <g>
          <polygon style="stroke-width:0.5;fill:#5AAE8E;" points="40.8,74.6 38.7,109.9 46.4,110 44.2,74.6 &#x9;&#x9;" stroke-width="0.5"/>
        </g>
        <g>
          <path style="stroke-width:0.5;fill:#EAF1EE;" d="M46.6,109.6" stroke-width="0.5"/>
        </g>
        <g>
          <polygon style="stroke-width:0.5;fill:#5AAE8E;" points="42.6,71.9 39.3,75.5 42.7,79.5 45.8,75.4 &#x9;&#x9;" stroke-width="0.5"/>
        </g>
        <g>
          <path style="stroke-width:0.5;fill:#B08E79;" d="M68.6,37.3c-0.6,3.6-2.8,5.4-4.7,5.4c-2,0-2.3-2.9-2.3-5.4c0-1.8,0.8-3.3,1.9-4&#xA;&#x9;&#x9;&#x9;c0.5-0.3,2.8-0.9,3.4-0.9C69.3,32.3,69,34.8,68.6,37.3z" stroke-width="0.5"/>
        </g>
        <g>
          <path style="stroke-width:0.5;fill:#B08E79;" d="M17.2,37.3c0.6,3.6,2.8,5.4,4.7,5.4c2,0,2.3-2.9,2.3-5.4c0-1.8-0.8-3.3-1.9-4&#xA;&#x9;&#x9;&#x9;c-0.5-0.3-2.8-0.9-3.4-0.9C16.5,32.3,16.8,34.8,17.2,37.3z" stroke-width="0.5"/>
        </g>
        <g>
          <path style="stroke-width:0.5;fill:#FFFFFF;" d="M44.4,69.6c-7.2-0.4-9.8-3.7-11.5-4.6c-0.1-0.1-2.5,2.2-2.5,2.2s-0.5,0-1.4,0.3&#xA;&#x9;&#x9;&#x9;c-0.4,0.2-0.6,0.5-1.4,0.8L38.3,77L44.4,69.6z" stroke-width="0.5"/>
        </g>
        <g>
          <path style="stroke-width:0.5;fill:#FFFFFF;" d="M41.1,70.1c7.2-0.4,9.8-3.7,11.5-4.6c0.1-0.1,2.5,2.2,2.5,2.2s0.5,0,1.4,0.3&#xA;&#x9;&#x9;&#x9;c0.4,0.2,0.6,0.5,1.4,0.8l-10.7,8.7L41.1,70.1z" stroke-width="0.5"/>
        </g>
        <g>
          <path style="stroke-width:0.5;fill:#495268;" d="M30.2,67.2c0,0-2.6,0-4,1.8c-1.5,1.9-2.3,5.7-2.7,8.6c0,0.4-0.1,0.7-0.1,1.1l5.4,2.4l-4.5,3.5&#xA;&#x9;&#x9;&#x9;L38.7,110l-7.4-43.6L30.2,67.2z" stroke-width="0.5"/>
        </g>
        <g>
          <path style="stroke-width:0.5;fill:#495268;" d="M54.9,67.2c0,0,2.6,0,4,1.8c1.5,1.9,2.3,5.7,2.7,8.6c0,0.4,0.1,0.7,0.1,1.1l-5.4,2.4l4.5,3.5&#xA;&#x9;&#x9;&#x9;L46.4,110l7.4-43.6L54.9,67.2z" stroke-width="0.5"/>
        </g>
      </g>
    </g>
  </g>
  <g id="S Left And Right Wide Head-il63z8al-ko172" transform="translate(665,230)">
    <desc>root/arrows/slenderLeftAndRightWithWideHead?version=2&amp;author=Cinergix</desc>
    <g id="image" transform="rotate(4.071094827536712e-15) scale(0.2735239863395691,0.2458810806274414)">
      <polygon vector-effect="non-scaling-stroke" fill="#f96872" stroke="#e85861" points="21.704,15.069 21.704,1.208 0.707,22.211 21.704,43.208 21.704,29.344 &#xD;&#xA;&#x9;69.71,29.344 69.71,43.208 90.708,22.211 69.71,1.208 69.71,15.069 " style="stroke:#e85861;stroke-width:0.5;fill:#f96872;" stroke-width="0.5"/>
    </g>
  </g>
  <g id="il63z8al-ko173" transform="translate(800,120)">
    <desc>root/abstractShapes/circle?version=4&amp;author=Cinergix</desc>
    <g id="image" transform="scale(1.3302751779556274,1.3302751779556274)">
      <circle vector-effect="non-scaling-stroke" fill="none" stroke="#004a80" cx="54.5" cy="54" r="54.5" style="stroke:#004a80;stroke-width:2;fill:none;" stroke-width="2"/>
    </g>
  </g>
  <g id="Connector-il63z8al-ko175" transform="translate(-300,-1350)">
    <g id="graphics">
      <path d="M 1050 1545 L 1100 1545 " fill="none" stroke="#004a80" stroke-width="2"/>
    </g>
    <g id="toIcon" transform="translate(1100,1545) rotate(90)">
      <metadata id="metadata3057">
        <aaa:RDF xmlns:aaa="http://www.w3.org/1999/02/22-rdf-syntax-ns#"/>
      </metadata>
      <aaa:namedview pagecolor="#ffffff" bordercolor="#666666" borderopacity="1" objecttolerance="10" gridtolerance="10" guidetolerance="10" aab:pageopacity="0" aab:pageshadow="2" aab:window-width="1366" aab:window-height="706" id="namedview3053" showgrid="true" aab:zoom="5.6568543" aab:cx="35.742573" aab:cy="39.38026" aab:window-x="-8" aab:window-y="-8" aab:window-maximized="1" aab:current-layer="Layer_1" xmlns:aaa="http://sodipodi.sourceforge.net/DTD/sodipodi-0.dtd" xmlns:aab="http://www.inkscape.org/namespaces/inkscape"/>
      <polygon points="0,0 8,8 -8,8 " id="polygon3051" transform="translate(0.00390625,0.71874995)" style="stroke:#004a80;fill:#004a80;stroke-width:2;" stroke="#004a80" stroke-width="2" fill="#004a80"/>
    </g>
  </g>
  <g id="il63z8al-ko178" transform="translate(800,220)">
    <desc>root/textControl?version=&amp;author=</desc>
    <g id="image"/>
    <text x="0" y="0" width="94" height="20.95" transform="translate(25.45,5.5)">
      <tspan x="5" y="13.9400390625" style="font-family:STHeiti;font-size:14px;fill:#004a80;">选出完美方案</tspan>
    </text>
  </g>
  <g id="il63z8al-ko180" transform="translate(815,165.0999999999999)">
    <desc>root/people/boss?version=3&amp;author=Cinergix</desc>
    <g id="image" transform="scale(0.5232558250427246,0.5445454716682434)">
      <g>
        <path fill="#FFFFFF" stroke="#231F20" stroke-width="0.5" stroke-miterlimit="10" d="M43.8,67.2" style="stroke-width:0.5;"/>
        <path fill="#F1C79F" d="M54.4,68c-5.3-2.8-4.3-10.5-4-13.3c-2.3,0.9-5.1,1.3-8,1.3s-5.6-0.5-8-1.3c0.3,2.8,1.3,10.5-4,13.3&#xA;&#x9;&#x9;C13.6,70.4,3.5,77.3,3.5,81v24.7c0,2.3,1.8,4.1,4.1,4.1h73.1c2.3,0,4.1-1.8,4.1-4.1l-2-24.7C82.8,77.4,71.2,70.4,54.4,68z" stroke-width="0.5" style="stroke-width:0.5;"/>
        <path fill="#E4AE80" d="M33.4,65.2c1.8-3.1,1.3-7.3,1.1-9.2c2.3,0.9,5.1,1.3,8,1.3s5.6-0.5,8-1.3c-0.2,1.8-0.6,6.2,1.1,9.2&#xA;&#x9;&#x9;c0,0-4,2.2-9,2.2C37.6,67.4,33.4,65.2,33.4,65.2z" stroke-width="0.5" style="stroke-width:0.5;"/>
        <path fill="#4D4C4C" d="M30,68.1C13.2,70.5,3,77.4,3,81l-2,24.7c0,2.3,1.8,4.1,4.1,4.1h75.8c2.3,0,4.1-1.8,4.1-4.1L83,81&#xA;&#x9;&#x9;c0-3.7-11.6-10.6-28.4-13C54.4,68,44.3,78.3,30,68.1z" stroke-width="0.5" style="stroke-width:0.5;"/>
        <path fill="#FBCEA4" d="M63.9,37.6c0,14.6-9.4,26.4-21,26.4s-21-11.8-21-26.4s9.4-26.5,21-26.4C62.3,11.4,63.9,23,63.9,37.6z" stroke-width="0.5" style="stroke-width:0.5;"/>
        <polygon fill="#3A3A3A" points="14.4,109.8 16.3,94.2 16.3,109.8 &#x9;" stroke-width="0.5" style="stroke-width:0.5;"/>
        <polygon fill="#3A3A3A" points="72.3,109.8 70.5,94.2 70.5,109.8 &#x9;" stroke-width="0.5" style="stroke-width:0.5;"/>
        <polygon fill="#EAF1EE" points="53.6,72.6 46.4,75.3 30.2,70.2 28.9,76.4 36,102 38.8,109.8 46.1,109.8 55.8,76.4 &#x9;" stroke-width="0.5" style="stroke-width:0.5;"/>
        <path fill="#A87337" d="M31.7,22.2c-4.4,1.3-5,0.9-7.5,4.5c-2.8,3.9-1.8,9.4-1.8,9.4l-0.2,0.2l-0.3-1.5c0,0-4.5-11.6-1.6-19.4&#xA;&#x9;&#x9;c2-5.3,4.5-13.4,21.6-15c23.9-2.3,19.6,8.3,22.9,15.9c3.2,7.2-2.3,21-2.3,21c-1.4-12.4-1.9-18.7-6.8-21.6&#xA;&#x9;&#x9;C55.7,15.7,37.7,20.4,31.7,22.2z" stroke-width="0.5" style="stroke-width:0.5;"/>
        <polygon fill="#DF4C73" points="40.7,75.3 38.7,109.8 46.2,109.8 44.1,75.3 &#x9;" stroke-width="0.5" style="stroke-width:0.5;"/>
        <path fill="#EAF1EE" d="M46.4,109.4" stroke-width="0.5" style="stroke-width:0.5;"/>
        <polygon fill="#DF4C73" points="42.4,72.6 39.2,76.2 42.6,80.1 45.6,76.1 &#x9;" stroke-width="0.5" style="stroke-width:0.5;"/>
        <path fill="#FBCEA4" d="M67.9,38.9c-0.5,3.5-2.7,5.3-4.6,5.3S61,41.4,61,38.9c0-1.7,0.8-3.2,1.9-3.9c0.5-0.3,2.8-0.9,3.4-0.9&#xA;&#x9;&#x9;C68.6,34,68.3,36.4,67.9,38.9z" stroke-width="0.5" style="stroke-width:0.5;"/>
        <path fill="#FBCEA4" d="M17.6,38.9c0.5,3.5,2.7,5.3,4.6,5.3s2.3-2.8,2.3-5.3c0-1.7-0.8-3.2-1.9-3.9c-0.5-0.3-2.8-0.9-3.4-0.9&#xA;&#x9;&#x9;C17,34,17.3,36.4,17.6,38.9z" stroke-width="0.5" style="stroke-width:0.5;"/>
        <path fill="#FFFFFF" d="M44.2,70.5c-7-0.4-9.5-3.6-11.3-4.5c-0.1-0.1-2.4,2.1-2.4,2.1s-0.5,0-1.3,0.3c-0.4,0.2-0.6,0.5-1.3,0.7&#xA;&#x9;&#x9;l10.4,8.5L44.2,70.5z" stroke-width="0.5" style="stroke-width:0.5;"/>
        <path fill="#FFFFFF" d="M41,70.9c7-0.4,9.5-3.6,11.3-4.5c0.1-0.1,2.4,2.1,2.4,2.1s0.5,0,1.3,0.3c0.4,0.2,0.6,0.5,1.3,0.7L46.9,78&#xA;&#x9;&#x9;L41,70.9z" stroke-width="0.5" style="stroke-width:0.5;"/>
        <path fill="#686969" d="M30.4,68.1c0,0-2.5,0-3.9,1.8c-1.5,1.8-2.2,5.6-2.6,8.4c0,0.4-0.1,0.7-0.1,1.1l5.2,2.3l-4.4,3.4l14,24.8&#xA;&#x9;&#x9;l-7.2-42.6L30.4,68.1z" stroke-width="0.5" style="stroke-width:0.5;"/>
        <path fill="#686969" d="M54.5,68.1c0,0,2.5,0,3.9,1.8c1.5,1.8,2.2,5.6,2.6,8.4c0,0.4,0.1,0.7,0.1,1.1l-5.2,2.3l4.4,3.4l-14,24.8&#xA;&#x9;&#x9;l7.2-42.6L54.5,68.1z" stroke-width="0.5" style="stroke-width:0.5;"/>
      </g>
    </g>
  </g>
  <g id="PDF-il63z8al-ko182" transform="translate(870,135)">
    <desc>root/socialMediaIcons/pdfRound?version=1&amp;author=Cinergix</desc>
    <g id="image" transform="scale(1.25,1.25)">
      <g>
        <path fill="#EB4C39" d="M19.3,11.2c-0.4,0.4-0.4,1.2,0,2C19.3,12.5,19.3,11.9,19.3,11.2z"/>
        <path fill="#EB4C39" d="M18,21.7c1.4-0.4,2.7-0.9,4.1-1.3c-0.8-1.2-1.6-2.3-2.4-3.5C19.1,18.5,18.5,20.1,18,21.7z"/>
        <path fill="#EB4C39" d="M13.7,25.5c-0.3,0.3-0.3,0.6,0.2,0.9c0.5-0.7,1-1.4,1.5-2c-0.1-0.1-0.1-0.1-0.1-0.1&#xD;&#xA;&#x9;&#x9;C14.8,24.5,14.3,24.9,13.7,25.5z"/>
        <path fill="#EB4C39" d="M24.6,21c0.4,0.4,0.8,0.7,1.4,0.6c0.2-0.1,0.4-0.3,0.5-0.4c0-0.1-0.1-0.1-0.1-0.1C25.8,21,25.2,21,24.6,21z&#xD;&#xA;&#x9;&#x9;"/>
        <path fill="#EB4C39" d="M20,0C9,0,0,8.9,0,20s9,20,20,20s20-8.9,20-20S31.1,0,20,0z M27.6,22.2c-0.7,0.9-1.5,1.3-2.5,0.9&#xD;&#xA;&#x9;&#x9;c-0.7-0.2-1.2-0.6-1.7-1c-0.3-0.2-0.6-0.3-0.9-0.2c-1.5,0.5-3,0.9-4.4,1.5c-0.2,0.1-0.4,0.3-0.5,0.5c-0.5,0.8-0.9,1.7-1.5,2.5&#xD;&#xA;&#x9;&#x9;c-0.2,0.3-0.5,0.6-0.8,0.9c-0.7,0.7-1.5,0.8-2,0.4c-0.9-0.6-1.2-1.5-0.8-2.4c0.2-0.5,0.6-0.9,0.9-1.3c0.8-0.6,1.7-1.1,2.5-1.6&#xD;&#xA;&#x9;&#x9;c0.2-0.1,0.4-0.4,0.5-0.6c0.7-2,1.5-3.9,2.1-5.9c0.1-0.2,0-0.6-0.1-0.8c-0.2-1-0.7-2-0.8-3c-0.1-1.1,0.4-1.9,1.2-2.2&#xD;&#xA;&#x9;&#x9;c0.9-0.3,1.8,0.1,2,1.1c0.1,0.4,0.1,0.8,0.1,1.3c-0.1,0.8-0.3,1.7-0.4,2.5c0,0.2,0,0.5,0.1,0.7c0.9,1.3,1.7,2.6,2.6,3.9&#xD;&#xA;&#x9;&#x9;c0.2,0.3,0.4,0.3,0.7,0.3c0.9-0.1,1.7-0.1,2.6,0C27.9,19.9,28.4,21,27.6,22.2z"/>
      </g>
    </g>
  </g>
  <g id="Connector-il63z8al-ko183" transform="translate(-300,-1350)">
    <g id="graphics">
      <path d="M 1160 1560.1 L 1195 1560.1 L 1195 1535 " fill="none" stroke="#003370" stroke-width="2"/>
    </g>
    <g id="toIcon" transform="translate(1195,1535)">
      <metadata id="metadata3057">
        <aaa:RDF xmlns:aaa="http://www.w3.org/1999/02/22-rdf-syntax-ns#"/>
      </metadata>
      <aaa:namedview pagecolor="#ffffff" bordercolor="#666666" borderopacity="1" objecttolerance="10" gridtolerance="10" guidetolerance="10" aab:pageopacity="0" aab:pageshadow="2" aab:window-width="1366" aab:window-height="706" id="namedview3053" showgrid="true" aab:zoom="5.6568543" aab:cx="35.742573" aab:cy="39.38026" aab:window-x="-8" aab:window-y="-8" aab:window-maximized="1" aab:current-layer="Layer_1" xmlns:aaa="http://sodipodi.sourceforge.net/DTD/sodipodi-0.dtd" xmlns:aab="http://www.inkscape.org/namespaces/inkscape"/>
      <polygon points="0,0 8,8 -8,8 " id="polygon3051" transform="translate(0.00390625,0.71874995)" style="stroke:#003370;fill:#003370;stroke-width:2;" stroke="#003370" stroke-width="2" fill="#003370"/>
    </g>
  </g>
  <g id="Connector-il63z8al-ko184" transform="translate(-300,-1350)">
    <g id="graphics">
      <path d="M 1175 1470 L 1175 1440 L 380 1440 L 380 1470 " fill="none" stroke="#004a80" stroke-width="2" mask="url(#TextboxMask-Connector-il63z8al-ko184)"/>
    </g>
    <g id="toIcon" transform="translate(380,1470) rotate(180)">
      <metadata id="metadata3057">
        <aaa:RDF xmlns:aaa="http://www.w3.org/1999/02/22-rdf-syntax-ns#"/>
      </metadata>
      <aaa:namedview pagecolor="#ffffff" bordercolor="#666666" borderopacity="1" objecttolerance="10" gridtolerance="10" guidetolerance="10" aab:pageopacity="0" aab:pageshadow="2" aab:window-width="1366" aab:window-height="706" id="namedview3053" showgrid="true" aab:zoom="5.6568543" aab:cx="35.742573" aab:cy="39.38026" aab:window-x="-8" aab:window-y="-8" aab:window-maximized="1" aab:current-layer="Layer_1" xmlns:aaa="http://sodipodi.sourceforge.net/DTD/sodipodi-0.dtd" xmlns:aab="http://www.inkscape.org/namespaces/inkscape"/>
      <polygon points="0,0 8,8 -8,8 " id="polygon3051" transform="translate(0.00390625,0.71874995)" style="stroke:#004a80;fill:#004a80;stroke-width:2;" stroke="#004a80" stroke-width="2" fill="#004a80"/>
    </g>
    <text x="0" y="0" width="33" height="20.95" transform="translate(761,1429.5)">
      <tspan x="2.5" y="13.9400390625" style="font-family:STHeiti;font-size:14px;fill:#003370;">交付</tspan>
    </text>
    <mask id="TextboxMask-Connector-il63z8al-ko184">
      <rect x="0" y="0" width="1500" height="1500" style="fill:white;"/>
      <rect x="0" y="0" width="33" height="20.95" transform="translate(761,1429.5)"/>
    </mask>
  </g>
  <g id="il6hnzf9-ko83" transform="translate(215,5)">
    <desc>root/abstractShapes/hRoundedRectangle?version=4&amp;author=Cinergix</desc>
    <g id="image">
      <g id="graphics">
        <rect x="0.5" y="0.5" width="524.99853515625" height="48.998779296875" rx="20" fill="#ffffff" stroke="#003370" stroke-width="1" fill-opacity="0" stroke-linejoin="round" stroke-linecap="round"/>
      </g>
    </g>
    <text x="0" y="0" width="114" height="38.65" transform="translate(205.95,7.65)">
      <tspan x="5" y="25.90986328125" style="font-family:STHeiti;font-size:26px;fill:#143872;">业务流程</tspan>
    </text>
  </g>
</svg>